<?xml version="1.0" encoding="UTF-8"?>
<svg version="1.1" xmlns="http://www.w3.org/2000/svg" width="180" height="180">
<path d="M0 0 C4.32504836 1.65863505 7.09418825 4.871041 10.25 8.125 C10.80429688 8.68832031 11.35859375 9.25164063 11.9296875 9.83203125 C13.29104485 11.21686028 14.64614859 12.60783204 16 14 C16.4103373 13.25698639 16.4103373 13.25698639 16.82896423 12.4989624 C19.10318408 9.12556497 20.8212969 7.27108379 24.86990356 6.33996582 C28.51414991 6.10588908 32.10245632 6.08265165 35.75390625 6.140625 C37.10098915 6.14098916 38.44807458 6.138977 39.79515076 6.13470459 C42.61072155 6.13341344 45.42472503 6.1562753 48.23999023 6.19726562 C51.8407285 6.24839338 55.43900802 6.24612916 59.03997898 6.22665787 C61.81891594 6.21634047 64.59729183 6.23080772 67.3761425 6.25304413 C69.34639034 6.26542074 71.31672462 6.25984456 73.28700256 6.25396729 C83.21100666 6.43746248 83.21100666 6.43746248 86.27685547 9.34057617 C89.58205563 14.44167356 90.23229226 19.72014844 88.99707031 25.59814453 C85.58140217 33.82619135 76.94228587 39.93661462 70.45263672 45.734375 C67.0455143 48.88170688 63.62066622 52.15335216 61 56 C60.66905301 59.27241279 60.66905301 59.27241279 63.5703125 61.91088867 C64.74753841 63.08763873 65.93304138 64.25614424 67.125 65.41796875 C67.74648926 66.03521317 68.36797852 66.65245758 69.00830078 67.28840637 C70.99861833 69.26190579 72.99910395 71.22473225 75 73.1875 C76.34964009 74.52209737 77.69860736 75.85737551 79.046875 77.19335938 C82.35682227 80.47019575 85.67592738 83.73749597 89 87 C87.39626852 91.00517396 84.57886014 93.6771098 81.5546875 96.640625 C81.02481232 97.16767029 80.49493713 97.69471558 79.94900513 98.23773193 C78.26232175 99.91325675 76.56880436 101.58167722 74.875 103.25 C73.72740612 104.38755851 72.58026539 105.52557436 71.43359375 106.6640625 C68.62761863 109.44803465 65.81549536 112.2256576 63 115 C63.90363281 115.02578125 64.80726563 115.0515625 65.73828125 115.078125 C66.91777344 115.13484375 68.09726563 115.1915625 69.3125 115.25 C70.48425781 115.29640625 71.65601563 115.3428125 72.86328125 115.390625 C76 116 76 116 77.91796875 117.8125 C80.87092892 123.78238338 77.36344632 131.17090835 75.375 137.0625 C75.13265625 137.72282227 74.8903125 138.38314453 74.640625 139.06347656 C73.37098422 142.74652935 72.87527818 145.42685117 73.4765625 149.30859375 C74 153 74 153 72 156 C70.12060547 156.34057617 70.12060547 156.34057617 67.8671875 156.29296875 C67.06152344 156.28330078 66.25585938 156.27363281 65.42578125 156.26367188 C64.58402344 156.23853516 63.74226562 156.21339844 62.875 156.1875 C62.02550781 156.17396484 61.17601562 156.16042969 60.30078125 156.14648438 C58.20025163 156.11108219 56.10004707 156.05727401 54 156 C53.03394549 152.29344663 53.00597359 149.98207923 54.21484375 146.35546875 C54.48876953 145.51435547 54.76269531 144.67324219 55.04492188 143.80664062 C55.33947266 142.94232422 55.63402344 142.07800781 55.9375 141.1875 C56.22818359 140.30384766 56.51886719 139.42019531 56.81835938 138.50976562 C57.53507836 136.33610968 58.26252097 134.16668224 59 132 C57.02 131.67 55.04 131.34 53 131 C52.87882813 131.556875 52.75765625 132.11375 52.6328125 132.6875 C52.38144531 133.8321875 52.38144531 133.8321875 52.125 135 C51.94582031 135.81984375 51.76664063 136.6396875 51.58203125 137.484375 C51.05488325 139.76278649 50.44399166 141.99896852 49.8125 144.25 C49.03242139 147.85036281 49.20658468 149.52880799 50 153 C49.34 153.99 48.68 154.98 48 156 C45.04935852 156.2208564 42.31631769 156.28060989 39.375 156.1875 C38.57320313 156.17396484 37.77140625 156.16042969 36.9453125 156.14648438 C34.96325622 156.11109051 32.98154449 156.05728234 31 156 C30.02408417 152.61682513 30.14143345 150.4342662 31 147 C28.61818312 149.14363519 27.15074196 150.54777412 26.125 153.625 C25.568125 154.800625 25.568125 154.800625 25 156 C24.11441406 156.2578125 23.22882813 156.515625 22.31640625 156.78125 C18.08802095 158.33514424 15.86095676 160.65267688 12.8125 163.875 C12.29236328 164.40480469 11.77222656 164.93460938 11.23632812 165.48046875 C9.07606066 167.70419234 7.09178203 169.87418643 5.26171875 172.3828125 C4.84535156 172.91648438 4.42898437 173.45015625 4 174 C3.34 174 2.68 174 2 174 C2 174.66 2 175.32 2 176 C-2.19625909 174.36221955 -4.98676785 171.26676818 -8.078125 168.1171875 C-8.93528107 167.25578659 -8.93528107 167.25578659 -9.80975342 166.37698364 C-11.62792945 164.5476419 -13.43901492 162.71145807 -15.25 160.875 C-16.48391329 159.63105226 -17.71828322 158.3875573 -18.953125 157.14453125 C-21.97406743 154.10157633 -24.98867092 151.05246746 -28 148 C-29.06486855 148.89301656 -30.12675041 149.7895947 -31.1875 150.6875 C-32.15792236 151.50263062 -32.15792236 151.50263062 -33.14794922 152.33422852 C-35.1917576 154.08723525 -35.1917576 154.08723525 -37.3203125 156.83984375 C-41.32221527 160.06586742 -44.88442457 159.69767664 -49.875 159.5625 C-50.74769531 159.57345703 -51.62039062 159.58441406 -52.51953125 159.59570312 C-57.41487081 159.54049253 -61.35411146 159.07978977 -65.59561157 156.48597717 C-67.48710349 154.48459796 -67.50590277 153.26443077 -67.58496094 150.53295898 C-67.49872625 148.68565286 -67.379599 146.83970063 -67.234375 144.99609375 C-67.15281817 142.96253284 -67.07692846 140.92873835 -67.00610352 138.89477539 C-66.9612381 137.83727081 -66.91637268 136.77976624 -66.87014771 135.69021606 C-65.53945778 117.19281355 -65.53945778 117.19281355 -72.26953125 100.6640625 C-76.62208456 96.01713957 -81.48780547 92.18397562 -87 89 C-85.59892821 85.63390583 -84.12256511 84.1432877 -81.12109375 82.12109375 C-74.60715045 77.1716619 -68.52737181 72.22997595 -67.10546875 63.77734375 C-65.92244054 53.58806236 -66.38218836 43.21635027 -67 33 C-67.77802979 32.86730713 -68.55605957 32.73461426 -69.35766602 32.59790039 C-72.81273056 31.81609746 -73.95322335 30.89147812 -76 28 C-76.42918602 25.18513167 -76.60594812 22.86618146 -76.5625 20.0625 C-76.58634766 19.35931641 -76.61019531 18.65613281 -76.63476562 17.93164062 C-76.62504771 14.47530179 -76.14253065 12.22972124 -74.31860352 9.29003906 C-69.8397084 5.14496542 -62.94334709 6.39908537 -57.2734375 6.51171875 C-55.92014883 6.52105488 -54.56684316 6.52816721 -53.21353149 6.53315735 C-49.65996185 6.55219414 -46.10742374 6.6012449 -42.55426025 6.65667725 C-38.93735617 6.70783357 -35.32028685 6.73069254 -31.703125 6.75585938 C-25.34936408 6.80365833 -18.99623573 6.87612629 -12.64291382 6.96635437 C-8.57659364 7.28460228 -8.57659364 7.28460228 -5.17578125 5.46875 C-4.25345703 4.49421875 -4.25345703 4.49421875 -3.3125 3.5 C-2.68988281 2.8503125 -2.06726563 2.200625 -1.42578125 1.53125 C-0.72001953 0.77328125 -0.72001953 0.77328125 0 0 Z " fill="#080908" transform="translate(89,2)"/>
<path d="M0 0 C1.01037827 0.00222061 2.02075653 0.00444122 3.06175232 0.00672913 C4.77341331 0.00684242 4.77341331 0.00684242 6.51965332 0.00695801 C7.76129745 0.01211929 9.00294159 0.01728058 10.2822113 0.02259827 C12.17785072 0.02472069 12.17785072 0.02472069 14.11178589 0.02688599 C17.47705394 0.0315487 20.84225495 0.04053972 24.20750427 0.05158997 C27.63930175 0.06180606 31.07110614 0.06638403 34.50291443 0.07142639 C41.2405633 0.08248071 47.9781803 0.09923742 54.71580505 0.12025452 C55.21080505 1.60525452 55.21080505 1.60525452 55.71580505 3.12025452 C55.05580505 3.12025452 54.39580505 3.12025452 53.71580505 3.12025452 C53.73643005 4.41962952 53.75705505 5.71900452 53.77830505 7.05775452 C53.7997996 8.41191085 53.78728704 9.76781534 53.71580505 11.12025452 C53.38580505 11.45025452 53.05580505 11.78025452 52.71580505 12.12025452 C49.08580505 12.12025452 45.45580505 12.12025452 41.71580505 12.12025452 C41.71580505 34.56025452 41.71580505 57.00025452 41.71580505 80.12025452 C43.36580505 78.80025452 45.01580505 77.48025452 46.71580505 76.12025452 C46.51456024 75.53341385 46.31331543 74.94657318 46.10597229 74.34194946 C45.52551234 71.03668749 47.09669081 69.13304703 48.89640808 66.4561615 C52.71795905 61.54970748 57.18762564 57.24253088 61.59861755 52.87416077 C62.66096789 51.81232999 63.72279798 50.7499785 64.78413391 49.68713379 C66.99674254 47.47461435 69.21437868 45.26730663 71.4360199 43.06385803 C74.28377799 40.23891064 77.12019412 37.40288687 79.9532032 34.56315708 C82.13866716 32.37435578 84.32907993 30.19056398 86.52112961 28.00835991 C87.56945154 26.96388493 88.61643105 25.91806077 89.6620369 24.87086678 C91.11926396 23.41326943 92.58280693 21.96233191 94.04832458 20.51307678 C94.87929657 19.68671219 95.71026855 18.8603476 96.56642151 18.00894165 C98.71580505 16.12025452 98.71580505 16.12025452 101.71580505 15.12025452 C102.04580505 14.13025452 102.37580505 13.14025452 102.71580505 12.12025452 C99.41580505 12.12025452 96.11580505 12.12025452 92.71580505 12.12025452 C92.71580505 12.78025452 92.71580505 13.44025452 92.71580505 14.12025452 C91.72580505 14.12025452 90.73580505 14.12025452 89.71580505 14.12025452 C89.66191418 12.16221945 89.62306288 10.20376543 89.59080505 8.24525452 C89.56760193 7.15470764 89.5443988 6.06416077 89.52049255 4.94056702 C89.71580505 2.12025452 89.71580505 2.12025452 91.71580505 0.12025452 C94.08229065 -0.12025452 94.08229065 -0.12025452 97.08348083 -0.10679626 C98.76499741 -0.10656967 98.76499741 -0.10656967 100.48048401 -0.1063385 C101.69509308 -0.09601593 102.90970215 -0.08569336 104.16111755 -0.07505798 C105.40126617 -0.07222809 106.64141479 -0.06939819 107.91914368 -0.06648254 C111.21705138 -0.05716723 114.51476478 -0.03919438 117.81260681 -0.01707458 C121.17745075 0.00337978 124.54232312 0.01251828 127.9072113 0.02259827 C134.51015228 0.04468933 141.11296277 0.07818969 147.71580505 0.12025452 C148.04580505 1.11025452 148.37580505 2.10025452 148.71580505 3.12025452 C148.05580505 3.12025452 147.39580505 3.12025452 146.71580505 3.12025452 C146.84213318 3.96587952 146.9684613 4.81150452 147.09861755 5.68275452 C146.54622761 10.64299071 144.0362889 12.68887706 140.59080505 16.12025452 C139.9378949 16.79378967 139.28498474 17.46732483 138.61228943 18.16127014 C136.3321453 20.50014844 134.02686332 22.81192263 131.71580505 25.12025452 C130.80604919 26.0316217 129.89629333 26.94298889 128.95896912 27.88197327 C125.11330795 31.73229683 121.26740243 35.58194546 117.39500427 39.40541077 C113.58217502 43.18046203 109.80515817 46.93152344 106.3212738 51.01478577 C101.39726527 56.76503857 95.9114244 61.99256097 90.52830505 67.30775452 C88.38601663 69.42327629 86.24719385 71.54221756 84.1103363 73.66322327 C83.62797012 74.13729111 83.14560394 74.61135895 82.64862061 75.09979248 C80.46027378 77.27234262 78.45610776 79.45116433 76.55052185 81.87928772 C74.46317557 84.42882218 72.82911397 85.16896568 69.71580505 86.12025452 C70.37580505 86.12025452 71.03580505 86.12025452 71.71580505 86.12025452 C74.38247172 86.12025452 77.04913839 86.12025452 79.71580505 86.12025452 C79.93732055 87.91033918 80.14262719 89.70243613 80.34080505 91.49525452 C80.45682068 92.49298889 80.5728363 93.49072327 80.69236755 94.51869202 C80.70396912 95.80646545 80.70396912 95.80646545 80.71580505 97.12025452 C78.06464664 99.77141293 76.20190546 99.51098243 72.59080505 99.77650452 C70.47678219 99.98060817 70.47678219 99.98060817 68.71580505 102.12025452 C71.35580505 102.45025452 73.99580505 102.78025452 76.71580505 103.12025452 C78.28999004 107.09624478 77.05985778 109.74134589 75.6259613 113.63587952 C75.40258591 114.25170898 75.17921051 114.86753845 74.94906616 115.50202942 C74.23553264 117.46195649 73.50718869 119.41599084 72.77830505 121.37025452 C72.29098909 122.70062225 71.80464945 124.03134805 71.31932068 125.36244202 C70.12943649 128.61927249 68.92621106 131.87098684 67.71580505 135.12025452 C68.37580505 135.45025452 69.03580505 135.78025452 69.71580505 136.12025452 C69.05580505 137.77025452 68.39580505 139.42025452 67.71580505 141.12025452 C62.43580505 141.12025452 57.15580505 141.12025452 51.71580505 141.12025452 C54.0444893 134.07543373 56.45911323 127.0632591 58.90330505 120.05775452 C59.2713324 119.0013678 59.63935974 117.94498108 60.01853943 116.85658264 C60.91709225 114.27761934 61.81619158 111.69884799 62.71580505 109.12025452 C61.06580505 109.12025452 59.41580505 109.12025452 57.71580505 109.12025452 C57.38580505 108.13025452 57.05580505 107.14025452 56.71580505 106.12025452 C56.20098572 106.76712219 55.68616638 107.41398987 55.15574646 108.08045959 C49.55535191 115.0306073 43.78169512 121.75828996 37.60691833 128.20399475 C36.59130846 129.27831702 35.59125531 130.36754941 34.60691833 131.47059631 C25.99356419 141.09920734 25.99356419 141.09920734 19.66990662 141.89222717 C15.9462923 142.06023231 12.38236395 141.83514226 8.71580505 141.12025452 C6.17861622 138.58306569 6.46305207 137.70847835 6.45510864 134.19241333 C6.44802383 133.15064438 6.44093903 132.10887543 6.43363953 131.03553772 C6.43611694 129.88794983 6.43859436 128.74036194 6.44114685 127.55799866 C6.43348045 125.75062477 6.43348045 125.75062477 6.42565918 123.90673828 C6.41411681 120.59676111 6.41169343 117.28703384 6.41422248 113.97705388 C6.41529046 111.21602722 6.41041324 108.45502379 6.40561706 105.69400209 C6.39451257 99.18120211 6.39408965 92.66845979 6.40013123 86.15565491 C6.40617214 79.43230255 6.39385934 72.70915942 6.37256116 65.98584276 C6.35495909 60.21763683 6.3489416 54.44949758 6.3521989 48.68126577 C6.35401424 45.23432222 6.35135089 41.78752788 6.33748436 38.3406086 C6.32260375 34.49762347 6.33186395 30.65490581 6.3434906 26.81190491 C6.33584686 25.66634125 6.32820313 24.52077759 6.32032776 23.34049988 C6.32734207 22.2959111 6.33435638 21.25132233 6.34158325 20.17507935 C6.34141551 19.26602372 6.34124777 18.3569681 6.34107494 17.42036533 C6.71580505 15.12025452 6.71580505 15.12025452 9.71580505 12.12025452 C6.41580505 12.12025452 3.11580505 12.12025452 -0.28419495 12.12025452 C-0.28419495 12.78025452 -0.28419495 13.44025452 -0.28419495 14.12025452 C-1.27419495 14.12025452 -2.26419495 14.12025452 -3.28419495 14.12025452 C-3.31105433 11.97448815 -3.33052582 9.82862806 -3.34669495 7.68275452 C-3.35829651 6.48779358 -3.36989807 5.29283264 -3.3818512 4.06166077 C-3.25268723 0.1712421 -3.25268723 0.1712421 0 0 Z " fill="#C9C9C9" transform="translate(22.284194946289063,14.879745483398438)"/>
<path d="M0 0 C4.0887282 1.62217175 6.82878682 4.55693387 9.859375 7.62890625 C10.40861633 8.1786058 10.95785767 8.72830536 11.52374268 9.29466248 C12.67917585 10.45310855 13.83218584 11.61397594 14.98291016 12.77709961 C16.75238381 14.56490851 18.52980856 16.34450704 20.30859375 18.12304688 C21.43016208 19.24952769 22.55127219 20.37646495 23.671875 21.50390625 C24.20617126 22.03931534 24.74046753 22.57472443 25.29095459 23.12635803 C29 26.88393251 29 26.88393251 29 28 C28.195625 27.979375 27.39125 27.95875 26.5625 27.9375 C24.06645115 27.70366379 24.06645115 27.70366379 23 29 C22.19699463 29.85013672 21.39398926 30.70027344 20.56665039 31.57617188 C17.71368065 34.59221772 14.83093154 37.57822902 11.93823242 40.55615234 C10.69548744 41.84402629 9.46095506 43.13987987 8.23510742 44.44384766 C-3.29749352 56.69149167 -3.29749352 56.69149167 -9.69140625 57.15625 C-10.45783447 57.09244141 -11.2242627 57.02863281 -12.01391602 56.96289062 C-14.12477381 56.78094935 -14.12477381 56.78094935 -15.60913086 58.50195312 C-16.06811768 58.99630859 -16.52710449 59.49066406 -17 60 C-20.34192692 59.75546876 -21.60543557 59.39456443 -24 57 C-26.58064129 56.85502015 -29.04943884 56.81322455 -31.625 56.875 C-32.33140625 56.88402344 -33.0378125 56.89304688 -33.765625 56.90234375 C-35.51056098 56.92592397 -37.25532295 56.96179539 -39 57 C-39.66 59.31 -40.32 61.62 -41 64 C-40.34 64 -39.68 64 -39 64 C-40.46532963 71.13459038 -42.54159645 77.83109973 -44.96484375 84.68945312 C-45.22652344 85.44806641 -45.48820312 86.20667969 -45.7578125 86.98828125 C-45.9964502 87.66415283 -46.23508789 88.34002441 -46.48095703 89.03637695 C-47.17036816 91.30601949 -47.17036816 91.30601949 -47 95 C-46.34 95.66 -45.68 96.32 -45 97 C-47.64 99.64 -50.28 102.28 -53 105 C-59.875 99.375 -59.875 99.375 -61 96 C-58.03 96 -55.06 96 -52 96 C-52 93.69 -52 91.38 -52 89 C-52.66 88.67 -53.32 88.34 -54 88 C-52.12921753 80.4019975 -49.6912518 73.08455845 -46.98193359 65.75219727 C-45.87203041 62.70538363 -45 60.2700803 -45 57 C-47.97 56.67 -50.94 56.34 -54 56 C-53 54.0625 -53 54.0625 -51 52 C-49.125 51.7578125 -49.125 51.7578125 -47 51.6875 C-44.88777453 51.60001607 -44.88777453 51.60001607 -43 51 C-40.9786137 47.78377123 -40.9786137 47.78377123 -40 44 C-38.70943132 40.16430984 -37.26602621 37.94373762 -34.3125 35.1875 C-31.67061414 32.70444496 -29.23425055 30.14276093 -26.875 27.39453125 C-22.37412165 22.20334524 -17.54220308 17.35823377 -12.6875 12.5 C-11.78193359 11.5821875 -10.87636719 10.664375 -9.94335938 9.71875 C-9.07904297 8.8525 -8.21472656 7.98625 -7.32421875 7.09375 C-6.54135498 6.30677734 -5.75849121 5.51980469 -4.9519043 4.70898438 C-3 3 -3 3 -1 3 C-0.67 2.01 -0.34 1.02 0 0 Z " fill="#019531" transform="translate(144,62)"/>
<path d="M0 0 C0.33 0 0.66 0 1 0 C1 40.92 1 81.84 1 124 C12.76505061 123.96168372 12.76505061 123.96168372 20.0546875 118.15234375 C20.767957 117.4171627 20.767957 117.4171627 21.49563599 116.66712952 C22.98634713 115.11677703 24.42953662 113.52998848 25.875 111.9375 C26.86174245 110.89898603 27.85131689 109.86315529 28.84375 108.83007812 C33.50878045 103.93975773 37.98438751 98.89334128 42.40429688 93.78100586 C45.59223701 90.22286276 49.07982136 86.95532157 52.54492188 83.66992188 C55.70110567 80.59533155 57.55162783 78.2465362 59 74 C63.1441717 71.44036454 67.2854819 71.84018583 72 72 C72.22151549 73.79008467 72.42682213 75.58218162 72.625 77.375 C72.74101563 78.37273437 72.85703125 79.37046875 72.9765625 80.3984375 C72.98816406 81.68621094 72.98816406 81.68621094 73 83 C70.34884159 85.65115841 68.48610041 85.39072791 64.875 85.65625 C62.76097714 85.86035366 62.76097714 85.86035366 61 88 C63.64 88.33 66.28 88.66 69 89 C70.57418498 92.97599026 69.34405272 95.62109137 67.91015625 99.515625 C67.68678085 100.13145447 67.46340546 100.74728394 67.23326111 101.3817749 C66.51972759 103.34170197 65.79138364 105.29573632 65.0625 107.25 C64.57518403 108.58036773 64.0888444 109.91109354 63.60351562 111.2421875 C62.41363144 114.49901797 61.21040601 117.75073232 60 121 C60.99 121.495 60.99 121.495 62 122 C61.34 123.65 60.68 125.3 60 127 C54.72 127 49.44 127 44 127 C46.32868424 119.95517922 48.74330818 112.94300459 51.1875 105.9375 C51.55552734 104.88111328 51.92355469 103.82472656 52.30273438 102.73632812 C53.2012872 100.15736482 54.10038653 97.57859347 55 95 C53.35 95 51.7 95 50 95 C49.67 94.01 49.34 93.02 49 92 C48.48518066 92.64686768 47.97036133 93.29373535 47.43994141 93.96020508 C41.83954686 100.91035278 36.06589007 107.63803544 29.89111328 114.08374023 C28.87550341 115.1580625 27.87545025 116.24729489 26.89111328 117.3503418 C18.27775913 126.97895282 18.27775913 126.97895282 11.95410156 127.77197266 C8.23048725 127.9399778 4.6665589 127.71488775 1 127 C-1 125 -1 125 -1.24888897 122.8201437 C-1.2483442 121.90886746 -1.24779943 120.99759123 -1.24723816 120.05870056 C-1.25143265 119.01404129 -1.25562714 117.96938202 -1.25994873 116.89306641 C-1.25432922 115.74233643 -1.24870972 114.59160645 -1.24291992 113.40600586 C-1.24481827 112.19787735 -1.24671661 110.98974884 -1.24867249 109.74501038 C-1.25174839 106.42689331 -1.24585748 103.10902401 -1.23571944 99.79093623 C-1.22695126 96.32405033 -1.22869614 92.85716878 -1.2290802 89.39027405 C-1.2281431 83.56867217 -1.21945237 77.74712235 -1.20581055 71.92553711 C-1.19007717 65.18630823 -1.18481267 58.44713637 -1.1855461 51.70789045 C-1.18615556 45.2344419 -1.18105811 38.761012 -1.17275429 32.28756905 C-1.16921564 29.52800921 -1.16739021 26.76845597 -1.16686058 24.00889397 C-1.16567341 20.16077518 -1.15597699 16.31270425 -1.14526367 12.46459961 C-1.14571686 11.3118454 -1.14617004 10.15909119 -1.14663696 8.97140503 C-1.14237198 7.92956558 -1.13810699 6.88772614 -1.13371277 5.8143158 C-1.13203692 4.90341659 -1.13036108 3.99251738 -1.12863445 3.05401516 C-1 1 -1 1 0 0 Z " fill="#161817" transform="translate(30,29)"/>
<path d="M0 0 C2.10353495 -0.0810206 4.20795952 -0.13919907 6.3125 -0.1875 C7.48425781 -0.22230469 8.65601562 -0.25710937 9.86328125 -0.29296875 C13.32453398 0.03031139 13.86261038 0.45486221 16 3 C19 3.5 19 3.5 22 3 C22.46277344 2.50371094 22.92554688 2.00742188 23.40234375 1.49609375 C25.51205648 -0.47950521 26.71687489 -0.3734442 29.5625 -0.3125 C30.34753906 -0.30863281 31.13257813 -0.30476563 31.94140625 -0.30078125 C34 0 34 0 36 2 C37.91006306 2.3176246 37.91006306 2.3176246 40 2.25 C40.70125 2.25515625 41.4025 2.2603125 42.125 2.265625 C44.2435669 2.15705515 44.2435669 2.15705515 46 0 C48.53125 -0.265625 48.53125 -0.265625 51.5 -0.25 C52.4796875 -0.25515625 53.459375 -0.2603125 54.46875 -0.265625 C57 0 57 0 59 2 C57.8224085 8.81514159 55.80517928 15.42693153 53.875 22.0625 C53.59785156 23.02349609 53.32070312 23.98449219 53.03515625 24.97460938 C52.35920711 27.31712279 51.68078301 29.65888777 51 32 C51.66 32 52.32 32 53 32 C53 32.66 53 33.32 53 34 C48.71 34 44.42 34 40 34 C41.46785073 25.32633657 44.10785912 17.27902924 47 9 C40.565 9.495 40.565 9.495 34 10 C31.69 17.26 29.38 24.52 27 32 C27.66 32 28.32 32 29 32 C29 32.66 29 33.32 29 34 C25.04 34 21.08 34 17 34 C18.67765015 25.45923559 21.34002181 17.27435964 24 9 C19.38 9 14.76 9 10 9 C9.5875 10.753125 9.175 12.50625 8.75 14.3125 C7.24189363 20.3810046 5.2591522 26.17436894 3 32 C3.99 32 4.98 32 6 32 C6 32.66 6 33.32 6 34 C1.71 34 -2.58 34 -7 34 C-4.35692322 23.42769289 -0.67044771 13.2492395 3 3 C1.68 3 0.36 3 -1 3 C-0.67 2.01 -0.34 1.02 0 0 Z " fill="#C8C8C8" transform="translate(106,121)"/>
<path d="M0 0 C4.3468201 1.99860574 7.29173974 4.81573197 10.6875 8.125 C11.28111328 8.66898438 11.87472656 9.21296875 12.48632812 9.7734375 C16.90769239 14.08893101 17.6154341 16.88540224 18 23 C19.89526777 25.48434151 19.89526777 25.48434151 22 27 C20.65772899 29.98435256 19.17341717 32.07879551 16.8671875 34.39160156 C16.23312988 35.0319635 15.59907227 35.67232544 14.94580078 36.33209229 C14.26243652 37.01140808 13.57907227 37.69072388 12.875 38.390625 C12.1722998 39.09523865 11.46959961 39.79985229 10.74560547 40.52581787 C9.26189896 42.01088353 7.77567108 43.49343381 6.28710938 44.97363281 C4.00156409 47.24844325 1.72690983 49.5337536 -0.546875 51.8203125 C-1.98894219 53.26105868 -3.43162935 54.70118465 -4.875 56.140625 C-5.55836426 56.82803772 -6.24172852 57.51545044 -6.94580078 58.22369385 C-7.89688721 59.16532379 -7.89688721 59.16532379 -8.8671875 60.12597656 C-9.70419189 60.96059418 -9.70419189 60.96059418 -10.55810547 61.81207275 C-12 63 -12 63 -14 63 C-14 51.45 -14 39.9 -14 28 C-12.35 28 -10.7 28 -9 28 C-8.690625 27.360625 -8.38125 26.72125 -8.0625 26.0625 C-7 24 -7 24 -6 23 C-6.10988866 19.50250912 -6.22559977 16.01172312 -6.47851562 12.52148438 C-6.58636897 9.16054089 -6.65044392 6.90491461 -4.64208984 4.11083984 C-2.98046875 2.44921875 -2.98046875 2.44921875 0 0 Z " fill="#019230" transform="translate(89,7)"/>
<path d="M0 0 C0.33 0 0.66 0 1 0 C1.05389087 1.95803507 1.09274217 3.91648909 1.125 5.875 C1.14820312 6.96554688 1.17140625 8.05609375 1.1953125 9.1796875 C1 12 1 12 -1 14 C-4.625 14.125 -4.625 14.125 -8 14 C-7.98081009 14.64844376 -7.96162018 15.29688751 -7.94184875 15.96498108 C-7.74478983 22.7294125 -7.56999037 29.49416231 -7.40795898 36.25952148 C-7.3446305 38.78245697 -7.27567575 41.30525788 -7.20092773 43.82788086 C-7.09431179 47.45926297 -7.00810837 51.09065216 -6.92578125 54.72265625 C-6.88842361 55.84583755 -6.85106598 56.96901886 -6.81257629 58.12623596 C-6.69558991 64.25407048 -7.03896748 68.58892456 -10 74 C-9.34 74.33 -8.68 74.66 -8 75 C-9.28965176 76.37562854 -10.62689293 77.70766393 -12 79 C-12.66 79 -13.32 79 -14 79 C-14 56.56 -14 34.12 -14 11 C-8.555 10.505 -8.555 10.505 -3 10 C-2.67 7.36 -2.34 4.72 -2 2 C-1.34 2 -0.68 2 0 2 C0 1.34 0 0.68 0 0 Z " fill="#7B7B7B" transform="translate(78,16)"/>
<path d="M0 0 C0.99 0 1.98 0 3 0 C3.29022249 3.37947963 3.41754424 6.62752728 3 10 C0.9375 12.125 0.9375 12.125 -2 14 C-3.07848922 15.15902292 -4.12062526 16.35231106 -5.13671875 17.56640625 C-9.12608502 22.20945056 -13.39998916 26.5091806 -17.75 30.8125 C-18.56694336 31.62565674 -19.38388672 32.43881348 -20.22558594 33.27661133 C-23.68695042 36.7217734 -27.15428591 40.1609029 -30.62109375 43.60058594 C-33.16615188 46.12746508 -35.70813131 48.65741315 -38.25 51.1875 C-39.02311523 51.95231689 -39.79623047 52.71713379 -40.59277344 53.50512695 C-44.71283051 57.60673466 -48.66490121 61.78847898 -52.44563293 66.20581055 C-55.08042619 69.24712452 -57.8682189 72.13055376 -60.6875 75 C-61.24244141 75.58394531 -61.79738281 76.16789062 -62.36914062 76.76953125 C-63.83615361 78.25922102 -65.412865 79.6390058 -67 81 C-68.32 81 -69.64 81 -71 81 C-69.51588085 75.80222249 -66.25457053 72.88435507 -62.48828125 69.23046875 C-61.84183151 68.59063553 -61.19538177 67.95080231 -60.52934265 67.2915802 C-58.4640589 65.24964353 -56.38890498 63.21812142 -54.3125 61.1875 C-52.25565113 59.16595146 -50.2010374 57.1422057 -48.1492157 55.11555481 C-46.87468849 53.85772158 -45.59707646 52.60300297 -44.31575012 51.35209656 C-40.58191179 47.67963744 -37.09659843 43.86631545 -33.67500305 39.90232849 C-31.24983782 37.14802848 -28.67449704 34.56786621 -26.05859375 31.99609375 C-25.5278273 31.46911392 -24.99706085 30.94213409 -24.45021057 30.39918518 C-22.78177379 28.74277792 -21.11009264 27.08970997 -19.4375 25.4375 C-6.45975649 14.43543002 -6.45975649 14.43543002 0 0 Z " fill="#6B6B6B" transform="translate(169,18)"/>
<path d="M0 0 C5.28 0 10.56 0 16 0 C14.5955438 4.2363089 13.19018746 8.47229623 11.7824707 12.70751953 C11.30373933 14.1487461 10.82554632 15.59015162 10.34790039 17.03173828 C9.66173087 19.10235992 8.97363545 21.17233285 8.28515625 23.2421875 C7.66459351 25.11173096 7.66459351 25.11173096 7.03149414 27.01904297 C6 30 6 30 5 32 C6.32 32 7.64 32 9 32 C9 32.99 9 33.98 9 35 C3.72 35 -1.56 35 -7 35 C-3.33333333 24 0.33333333 13 4 2 C2.68 2 1.36 2 0 2 C0 1.34 0 0.68 0 0 Z " fill="#C5C5C5" transform="translate(81,121)"/>
<path d="M0 0 C0.30308533 2.16242981 0.30308533 2.16242981 0 5 C-2.00535583 7.59989929 -2.00535583 7.59989929 -4.84936523 10.40112305 C-5.36469818 10.91557983 -5.88003113 11.43003662 -6.41098022 11.96008301 C-8.115421 13.65594977 -9.83676058 15.33352902 -11.55859375 17.01171875 C-12.74562894 18.18688616 -13.93149148 19.36323914 -15.1162262 20.54072571 C-18.23692478 23.63667283 -21.3718968 26.71774886 -24.51049805 29.79553223 C-28.9353741 34.13996108 -33.34059433 38.50433418 -37.74806213 42.8664093 C-40.09569417 45.18975559 -42.44866251 47.5074875 -44.80601501 49.82096863 C-45.87777289 50.87631622 -46.94951546 51.93167934 -48.02124023 52.98706055 C-48.96055893 53.90907761 -49.89987762 54.83109467 -50.86766052 55.78105164 C-53.02884835 57.80995827 -53.02884835 57.80995827 -54 60 C-54.66 60 -55.32 60 -56 60 C-55.19681402 53.17291915 -50.87977107 48.62884264 -46.17138672 43.9284668 C-45.70584381 43.46102554 -45.2403009 42.99358429 -44.76065063 42.51197815 C-43.23848757 40.98614503 -41.70930764 39.46757317 -40.1796875 37.94921875 C-39.11365865 36.88438342 -38.04800076 35.81917661 -36.98269653 34.75361633 C-34.75831097 32.53078884 -32.53062435 30.31134367 -30.30029297 28.09448242 C-27.43909031 25.25034114 -24.58458734 22.39958868 -21.73228264 19.54652691 C-19.53646086 17.35097661 -17.33804632 15.15803848 -15.13873672 12.96598244 C-14.08474988 11.91517977 -13.03136937 10.86376857 -11.97860336 9.81174278 C-10.51150952 8.34681105 -9.04117455 6.88521545 -7.56982422 5.42456055 C-6.73361542 4.59216354 -5.89740662 3.75976654 -5.03585815 2.90214539 C-1.92970423 0 -1.92970423 0 0 0 Z " fill="#F2F2F2" transform="translate(124,30)"/>
<path d="M0 0 C0.33 0 0.66 0 1 0 C1.33 41.91 1.66 83.82 2 127 C1.01 126.34 0.02 125.68 -1 125 C-1.3719368 122.8201437 -1.3719368 122.8201437 -1.36749268 120.05870056 C-1.37306183 119.01404129 -1.37863098 117.96938202 -1.3843689 116.89306641 C-1.37515411 115.74233643 -1.36593933 114.59160645 -1.35644531 113.40600586 C-1.35848969 112.19787735 -1.36053406 110.98974884 -1.36264038 109.74501038 C-1.365138 106.42677434 -1.35422296 103.10909526 -1.33711338 99.79093623 C-1.32210363 96.32405637 -1.32325205 92.85718096 -1.32244873 89.39027405 C-1.31875393 83.56864121 -1.30377503 77.74712612 -1.28125 71.92553711 C-1.25236237 64.44410442 -1.242026 56.96276654 -1.2375679 49.48128414 C-1.23359297 43.05993396 -1.2210909 36.63860454 -1.20722103 30.21726918 C-1.20311601 28.14781126 -1.20019347 26.07835407 -1.19742584 24.00889397 C-1.19163867 20.16076576 -1.17696987 16.3127002 -1.16113281 12.46459961 C-1.16001495 11.3118454 -1.15889709 10.15909119 -1.15774536 8.97140503 C-1.15203522 7.92956558 -1.14632507 6.88772614 -1.14044189 5.8143158 C-1.13746723 4.90341659 -1.13449257 3.99251738 -1.13142776 3.05401516 C-1 1 -1 1 0 0 Z " fill="#FCFCFC" transform="translate(30,29)"/>
<path d="M0 0 C0.99 0.33 1.98 0.66 3 1 C1.70989008 3.87793751 0.42638194 5.96183917 -2 8 C-2.99 8.33 -3.98 8.66 -5 9 C-6.37143029 10.97407111 -7.69981343 12.97829462 -9 15 C-11.90782161 18.47337958 -15.01664478 21.74297405 -18.14208984 25.01904297 C-19.4985334 26.46532195 -20.83474034 27.93065712 -22.15869141 29.40673828 C-24.53193693 32.05257625 -26.94958813 34.65198331 -29.375 37.25 C-30.1285376 38.10875732 -30.8820752 38.96751465 -31.65844727 39.85229492 C-35.12690017 43.48771608 -37.42394368 45.75617559 -42.49707031 46.54101562 C-45.7146831 46.5462461 -48.80817973 46.39190153 -52 46 C-52.495 44.515 -52.495 44.515 -53 43 C-52.27079346 43.05615479 -51.54158691 43.11230957 -50.7902832 43.17016602 C-44.03269924 43.21719504 -39.87571916 41.88821011 -35.04296875 37.15234375 C-33.04087743 35.12474224 -31.11172579 33.03872506 -29.1875 30.9375 C-28.1959462 29.89921613 -27.20181541 28.86338694 -26.20507812 27.83007812 C-21.5061476 22.9261969 -16.98076111 17.87897866 -12.53979492 12.74047852 C-10.15751689 10.0477149 -7.62679835 7.51819064 -5.0625 5 C-4.56943359 4.51144531 -4.07636719 4.02289063 -3.56835938 3.51953125 C-2.38126771 2.34396475 -1.19099502 1.17161174 0 0 Z " fill="#686868" transform="translate(85,110)"/>
<path d="M0 0 C1.01037827 0.00222061 2.02075653 0.00444122 3.06175232 0.00672913 C4.77341331 0.00684242 4.77341331 0.00684242 6.51965332 0.00695801 C7.76129745 0.01211929 9.00294159 0.01728058 10.2822113 0.02259827 C12.17785072 0.02472069 12.17785072 0.02472069 14.11178589 0.02688599 C17.47705394 0.0315487 20.84225495 0.04053972 24.20750427 0.05158997 C27.63930175 0.06180606 31.07110614 0.06638403 34.50291443 0.07142639 C41.2405633 0.08248071 47.9781803 0.09923742 54.71580505 0.12025452 C55.21080505 1.60525452 55.21080505 1.60525452 55.71580505 3.12025452 C36.57580505 3.12025452 17.43580505 3.12025452 -2.28419495 3.12025452 C-1.9179881 11.140756 -1.9179881 11.140756 -0.28419495 14.12025452 C-1.27419495 14.12025452 -2.26419495 14.12025452 -3.28419495 14.12025452 C-3.31105433 11.97448815 -3.33052582 9.82862806 -3.34669495 7.68275452 C-3.35829651 6.48779358 -3.36989807 5.29283264 -3.3818512 4.06166077 C-3.25268723 0.1712421 -3.25268723 0.1712421 0 0 Z " fill="#8E8E8E" transform="translate(22.284194946289063,14.879745483398438)"/>
<path d="M0 0 C0 8.25 0 16.5 0 25 C-7 19 -7 19 -10 16 C-13.12549017 15.74951364 -13.12549017 15.74951364 -16 16 C-2.72340426 0 -2.72340426 0 0 0 Z " fill="#028F30" transform="translate(23,74)"/>
<path d="M0 0 C1 2 1 2 -0.07421875 5.30859375 C-0.60454459 6.68777764 -1.14279778 8.0639305 -1.6875 9.4375 C-2.24655771 10.88393535 -2.80514913 12.330551 -3.36328125 13.77734375 C-3.64123535 14.49132324 -3.91918945 15.20530273 -4.20556641 15.94091797 C-5.30095003 18.78002845 -6.3413648 21.63791265 -7.375 24.5 C-7.69210938 25.3765625 -8.00921875 26.253125 -8.3359375 27.15625 C-8.55507812 27.7646875 -8.77421875 28.373125 -9 29 C-10.13199353 28.0919838 -11.25532363 27.17316174 -12.375 26.25 C-13.00148438 25.73953125 -13.62796875 25.2290625 -14.2734375 24.703125 C-16.08312318 22.91800519 -17.00117455 21.32050356 -18 19 C-17.01 18.67 -16.02 18.34 -15 18 C-14.29149651 16.68841889 -13.62914192 15.35144466 -13 14 C-11.57958984 12.26074219 -11.57958984 12.26074219 -9.9609375 10.546875 C-9.38085938 9.928125 -8.80078125 9.309375 -8.203125 8.671875 C-7.59984375 8.03765625 -6.9965625 7.4034375 -6.375 6.75 C-5.76398438 6.1003125 -5.15296875 5.450625 -4.5234375 4.78125 C-3.01971926 3.18354937 -1.51184263 1.59000851 0 0 Z " fill="#008F30" transform="translate(81,126)"/>
<path d="M0 0 C2.31 0.66 4.62 1.32 7 2 C1.47349666 8.74080425 -4.69449559 14.8071129 -10.875 20.9375 C-11.95596274 22.01343727 -13.03669383 23.08960731 -14.1171875 24.16601562 C-16.74212641 26.78003292 -19.37018628 29.39088596 -22 32 C-23.32 31.34 -24.64 30.68 -26 30 C-20.10702503 22.83445568 -13.47621711 16.47802101 -6.81640625 10.03125 C-5.94113281 9.17015625 -5.06585938 8.3090625 -4.1640625 7.421875 C-2.96450928 6.25543457 -2.96450928 6.25543457 -1.74072266 5.06542969 C0.32222093 3.06786204 0.32222093 3.06786204 0 0 Z " fill="#004906" transform="translate(166,88)"/>
<path d="M0 0 C0.33 0 0.66 0 1 0 C1.33 2.64 1.66 5.28 2 8 C5.3 8.33 8.6 8.66 12 9 C12 50.58 12 92.16 12 135 C11.67 135 11.34 135 11 135 C10.505 74.115 10.505 74.115 10 12 C6.7 12 3.4 12 0 12 C0 8 0 4 0 0 Z " fill="#444444" transform="translate(20,18)"/>
<path d="M0 0 C5.02072539 -0.70466321 5.02072539 -0.70466321 8 0 C10.76760928 2.35893427 12.89141364 5.04797909 15 8 C16.12588014 7.04270084 17.2506715 6.08412105 18.375 5.125 C19.00148438 4.59132812 19.62796875 4.05765625 20.2734375 3.5078125 C21.55836651 2.38567993 22.79371975 1.20628025 24 0 C27.125 -0.125 27.125 -0.125 30 0 C25.59156563 5.29012124 20.92440206 10.18808428 16 15 C11.69422496 13.33830526 8.90988145 10.16919694 5.75 6.9375 C5.19570312 6.38255859 4.64140625 5.82761719 4.0703125 5.25585938 C0 1.14043257 0 1.14043257 0 0 Z " fill="#004909" transform="translate(75,158)"/>
<path d="M0 0 C4.0887282 1.62217175 6.82878682 4.55693387 9.859375 7.62890625 C10.40861633 8.1786058 10.95785767 8.72830536 11.52374268 9.29466248 C12.67917585 10.45310855 13.83218584 11.61397594 14.98291016 12.77709961 C16.75238381 14.56490851 18.52980856 16.34450704 20.30859375 18.12304688 C21.43016208 19.24952769 22.55127219 20.37646495 23.671875 21.50390625 C24.20617126 22.03931534 24.74046753 22.57472443 25.29095459 23.12635803 C29 26.88393251 29 26.88393251 29 28 C26.87231445 28.34179688 26.87231445 28.34179688 24 28 C21.801378 26.23735209 19.97079345 24.55455769 18.04296875 22.53125 C17.49514236 21.97634888 16.94731598 21.42144775 16.38288879 20.84973145 C14.63899497 19.07788986 12.91330046 17.28945211 11.1875 15.5 C10.00701876 14.29443656 8.82539056 13.08999507 7.64257812 11.88671875 C4.74825784 8.93732409 1.87013765 5.97292495 -1 3 C-0.67 2.01 -0.34 1.02 0 0 Z " fill="#43F902" transform="translate(144,62)"/>
<path d="M0 0 C0.33 0 0.66 0 1 0 C1 3.96 1 7.92 1 12 C-3.66666667 12 -8.33333333 12 -13 12 C-12.98747192 12.79513504 -12.97494385 13.59027008 -12.96203613 14.40950012 C-12.84407259 21.89908138 -12.72633394 29.38866612 -12.60884857 36.87825489 C-12.54843883 40.72881578 -12.48794181 44.57937525 -12.42724609 48.42993164 C-12.36868624 52.14519117 -12.31035465 55.86045422 -12.25218201 59.57571983 C-12.22993619 60.99390478 -12.20760781 62.41208843 -12.18519592 63.83027077 C-12.15384503 65.81498502 -12.1228136 67.79970432 -12.09179688 69.78442383 C-12.07403198 70.91471512 -12.05626709 72.04500641 -12.03796387 73.20954895 C-12.01170619 75.13956217 -12 77.06980817 -12 79 C-12.66 79 -13.32 79 -14 79 C-14 56.56 -14 34.12 -14 11 C-8.555 10.505 -8.555 10.505 -3 10 C-2.67 7.36 -2.34 4.72 -2 2 C-1.34 2 -0.68 2 0 2 C0 1.34 0 0.68 0 0 Z " fill="#4E514F" transform="translate(78,16)"/>
<path d="M0 0 C2.97 0 5.94 0 9 0 C6.73972754 7.4266095 1.57137939 11.80492391 -4 17 C-4.66 15.68 -5.32 14.36 -6 13 C-5.01 12.67 -4.02 12.34 -3 12 C-2.87625 10.948125 -2.7525 9.89625 -2.625 8.8125 C-2.08859218 5.54041229 -1.36119965 2.99463924 0 0 Z " fill="#004609" transform="translate(118,133)"/>
<path d="M0 0 C2.05078125 0.03255208 4.1015625 0.06510417 6.15234375 0.09765625 C6.01184857 1.57733949 5.86479549 3.05640141 5.71484375 4.53515625 C5.63363281 5.35886719 5.55242187 6.18257813 5.46875 7.03125 C5.15234375 9.09765625 5.15234375 9.09765625 4.15234375 10.09765625 C2.63306337 10.16945589 1.11066893 10.18157632 -0.41015625 10.16015625 C-1.23644531 10.15113281 -2.06273438 10.14210938 -2.9140625 10.1328125 C-3.55214844 10.12121094 -4.19023438 10.10960938 -4.84765625 10.09765625 C-5.17765625 9.43765625 -5.50765625 8.77765625 -5.84765625 8.09765625 C-2.77893488 0.14687817 -2.77893488 0.14687817 0 0 Z " fill="#C1C1C1" transform="translate(95.84765625,100.90234375)"/>
<path d="M0 0 C0.804375 0.94875 1.60875 1.8975 2.4375 2.875 C3.365625 3.65875 4.29375 4.4425 5.25 5.25 C7.4375 7.875 7.4375 7.875 7.75 11.6875 C7.646875 12.739375 7.54375 13.79125 7.4375 14.875 C1.79323231 10.19145873 -3.5683046 5.2542354 -8.5625 -0.125 C-8.5625 -0.455 -8.5625 -0.785 -8.5625 -1.125 C-4.60529554 -2.32136414 -3.27799414 -2.7183366 0 0 Z " fill="#016915" transform="translate(15.5625,91.125)"/>
<path d="M0 0 C0.42129052 3.88270455 0.32774125 5.54012592 -1.9765625 8.7734375 C-2.85054687 9.63195312 -3.72453125 10.49046875 -4.625 11.375 C-5.48351563 12.24898437 -6.34203125 13.12296875 -7.2265625 14.0234375 C-10.45987408 16.32774125 -12.11729545 16.42129052 -16 16 C-2.72340426 0 -2.72340426 0 0 0 Z " fill="#5EEA8C" transform="translate(23,74)"/>
<path d="M0 0 C1.48558914 0.00666183 1.48558914 0.00666183 3.00119019 0.01345825 C4.68270676 0.01368484 4.68270676 0.01368484 6.39819336 0.01391602 C7.61280243 0.02423859 8.8274115 0.03456116 10.0788269 0.04519653 C11.31897552 0.04802643 12.55912415 0.05085632 13.83685303 0.05377197 C17.13476073 0.06308729 20.43247413 0.08106014 23.73031616 0.10317993 C27.0951601 0.12363429 30.46003247 0.1327728 33.82492065 0.14285278 C40.42786163 0.16494385 47.03067212 0.19844421 53.6335144 0.24050903 C54.1285144 1.72550903 54.1285144 1.72550903 54.6335144 3.24050903 C53.6435144 2.91050903 52.6535144 2.58050903 51.6335144 2.24050903 C49.90548309 2.14776996 48.17409043 2.11259196 46.443573 2.1111145 C45.38592743 2.10796234 44.32828186 2.10481018 43.23858643 2.1015625 C42.09789703 2.10358673 40.95720764 2.10561096 39.7819519 2.10769653 C38.02729111 2.10626144 38.02729111 2.10626144 36.23718262 2.10479736 C33.76414944 2.10411658 31.29111447 2.10596378 28.81808472 2.11013794 C25.01693751 2.11549716 21.21590796 2.11018455 17.4147644 2.10379028 C15.01632664 2.10445089 12.61788895 2.1057317 10.2194519 2.10769653 C9.07471405 2.1056723 7.9299762 2.10364807 6.75054932 2.1015625 C5.69920807 2.10471466 4.64786682 2.10786682 3.56466675 2.1111145 C2.16926163 2.11230789 2.16926163 2.11230789 0.7456665 2.11352539 C-1.35239407 2.00528507 -1.35239407 2.00528507 -2.3664856 3.24050903 C-2.57974963 8.84527993 -2.57974963 8.84527993 -1.3664856 14.24050903 C-2.3564856 14.24050903 -3.3464856 14.24050903 -4.3664856 14.24050903 C-4.42037647 12.28247396 -4.45922777 10.32401994 -4.4914856 8.36550903 C-4.51468872 7.27496216 -4.53789185 6.18441528 -4.5617981 5.06082153 C-4.3136694 1.47784323 -3.64745964 0.3706961 0 0 Z " fill="#F8F8F8" transform="translate(116.36648559570313,14.759490966796875)"/>
<path d="M0 0 C1.01037827 0.00222061 2.02075653 0.00444122 3.06175232 0.00672913 C4.77341331 0.00684242 4.77341331 0.00684242 6.51965332 0.00695801 C7.76129745 0.01211929 9.00294159 0.01728058 10.2822113 0.02259827 C12.17785072 0.02472069 12.17785072 0.02472069 14.11178589 0.02688599 C17.47705394 0.0315487 20.84225495 0.04053972 24.20750427 0.05158997 C27.63930175 0.06180606 31.07110614 0.06638403 34.50291443 0.07142639 C41.2405633 0.08248071 47.9781803 0.09923742 54.71580505 0.12025452 C55.21080505 1.11025452 55.21080505 1.11025452 55.71580505 2.12025452 C55.0164534 2.11803391 54.31710175 2.11581329 53.59655762 2.11352539 C47.01875585 2.09352172 40.44096251 2.07828 33.86313725 2.06844234 C30.48108693 2.06321477 27.09906166 2.05611941 23.71702576 2.04481506 C19.83250728 2.03191185 15.94799909 2.02702528 12.0634613 2.02259827 C10.23380577 2.01485634 10.23380577 2.01485634 8.3671875 2.00695801 C7.24610092 2.00688248 6.12501434 2.00680695 4.96995544 2.00672913 C3.97734207 2.00450851 2.9847287 2.0022879 1.96203613 2 C-0.2544602 1.8677551 -0.2544602 1.8677551 -1.28419495 3.12025452 C-1.3824349 4.59674327 -1.41393013 6.07800869 -1.40919495 7.55775452 C-1.41177307 8.36084045 -1.4143512 9.16392639 -1.41700745 9.99134827 C-1.41997821 12.17423383 -1.41997821 12.17423383 -0.28419495 14.12025452 C-1.27419495 14.12025452 -2.26419495 14.12025452 -3.28419495 14.12025452 C-3.31105433 11.97448815 -3.33052582 9.82862806 -3.34669495 7.68275452 C-3.35829651 6.48779358 -3.36989807 5.29283264 -3.3818512 4.06166077 C-3.25268723 0.1712421 -3.25268723 0.1712421 0 0 Z " fill="#FDFDFD" transform="translate(22.284194946289063,14.879745483398438)"/>
<path d="M0 0 C4.62 0 9.24 0 14 0 C13.67 0.99 13.34 1.98 13 3 C13 2.34 13 1.68 13 1 C12.01 1 11.02 1 10 1 C10 1.66 10 2.32 10 3 C7.36 3 4.72 3 2 3 C1.80664062 3.84304687 1.61328125 4.68609375 1.4140625 5.5546875 C1.02347656 7.19824219 1.02347656 7.19824219 0.625 8.875 C0.36976562 9.96554688 0.11453125 11.05609375 -0.1484375 12.1796875 C-1.22342653 15.73997228 -3.42849645 17.42849645 -6 20 C-4.21988878 13.24567727 -2.27387396 6.60506245 0 0 Z " fill="#171A18" transform="translate(116,130)"/>
<path d="M0 0 C3.90529703 3.25441419 7.73191489 6.5814958 11.4375 10.0625 C12.11683594 10.69285156 12.79617187 11.32320312 13.49609375 11.97265625 C15.35798872 14.48258739 15.30176291 15.94531229 15 19 C11.09470297 15.74558581 7.26808511 12.4185042 3.5625 8.9375 C2.88316406 8.30714844 2.20382813 7.67679688 1.50390625 7.02734375 C-0.35798872 4.51741261 -0.30176291 3.05468771 0 0 Z " fill="#42F602" transform="translate(91,8)"/>
<path d="M0 0 C0.99 0 1.98 0 3 0 C0.96136383 8.27056461 -1.82287673 16.10114411 -5 24 C-5.99 24 -6.98 24 -8 24 C-8 22.68 -8 21.36 -8 20 C-7.34 20 -6.68 20 -6 20 C-5.7525 18.741875 -5.505 17.48375 -5.25 16.1875 C-4.02166198 10.59767191 -2.05312625 5.33214826 0 0 Z " fill="#0E1912" transform="translate(80,130)"/>
<path d="M0 0 C2.3828125 0.2421875 2.3828125 0.2421875 5.125 0.875 C6.49011719 1.18050781 6.49011719 1.18050781 7.8828125 1.4921875 C8.58148438 1.65976563 9.28015625 1.82734375 10 2 C10 2.33 10 2.66 10 3 C9.38511719 3.03738281 8.77023438 3.07476562 8.13671875 3.11328125 C6.92435547 3.21189453 6.92435547 3.21189453 5.6875 3.3125 C4.88699219 3.37050781 4.08648437 3.42851563 3.26171875 3.48828125 C0.59821534 4.09090465 -0.16714596 5.05419697 -2 7 C-5 7.375 -5 7.375 -8 7 C-8.41894531 6.51144531 -8.83789062 6.02289063 -9.26953125 5.51953125 C-11.87948571 3.22772022 -14.27953579 3.4812111 -17.6875 3.3125 C-19.45673828 3.21388672 -19.45673828 3.21388672 -21.26171875 3.11328125 C-22.16535156 3.07589844 -23.06898437 3.03851563 -24 3 C-24 2.67 -24 2.34 -24 2 C-21.54220024 1.77873822 -19.08472352 1.57249605 -16.625 1.375 C-15.57699219 1.27832031 -15.57699219 1.27832031 -14.5078125 1.1796875 C-12.67630889 1.03880261 -10.83687252 1.01238341 -9 1 C-8.34 1.66 -7.68 2.32 -7 3 C-3.70285207 2.67028521 -2.3773161 2.3773161 0 0 Z " fill="#212522" transform="translate(130,118)"/>
<path d="M0 0 C3.55852772 -0.48088212 4.75118315 -0.18706668 7.67578125 2.01171875 C8.54589844 2.89472656 9.41601562 3.77773437 10.3125 4.6875 C11.19550781 5.55761719 12.07851562 6.42773438 12.98828125 7.32421875 C15.18706668 10.24881685 15.48088212 11.44147228 15 15 C9.72997792 10.60831493 4.64697949 6.0573621 0 1 C0 0.67 0 0.34 0 0 Z " fill="#017515" transform="translate(75,158)"/>
<path d="M0 0 C1.38294718 0.01329757 2.76582404 0.03715018 4.1484375 0.0703125 C4.85484375 0.07933594 5.56125 0.08835937 6.2890625 0.09765625 C8.03399848 0.12123647 9.77876045 0.15710789 11.5234375 0.1953125 C11.1934375 0.8553125 10.8634375 1.5153125 10.5234375 2.1953125 C6.2334375 2.1953125 1.9434375 2.1953125 -2.4765625 2.1953125 C-2.8065625 3.5153125 -3.1365625 4.8353125 -3.4765625 6.1953125 C-2.1565625 6.1953125 -0.8365625 6.1953125 0.5234375 6.1953125 C-0.1365625 8.1753125 -0.7965625 10.1553125 -1.4765625 12.1953125 C-2.1365625 12.1953125 -2.7965625 12.1953125 -3.4765625 12.1953125 C-3.4765625 10.8753125 -3.4765625 9.5553125 -3.4765625 8.1953125 C-4.1365625 8.1953125 -4.7965625 8.1953125 -5.4765625 8.1953125 C-5.6015625 5.3203125 -5.6015625 5.3203125 -5.4765625 2.1953125 C-3.4765625 0.1953125 -3.4765625 0.1953125 0 0 Z " fill="#030A05" transform="translate(108.4765625,117.8046875)"/>
<path d="M0 0 C0.99 0.33 1.98 0.66 3 1 C1.70989008 3.87793751 0.42638194 5.96183917 -2 8 C-2.99 8.33 -3.98 8.66 -5 9 C-5.66 9.66 -6.32 10.32 -7 11 C-8.13789441 12.00902444 -9.28454927 13.00821442 -10.4375 14 C-11.03433594 14.515625 -11.63117188 15.03125 -12.24609375 15.5625 C-14 17 -14 17 -17 19 C-15.60652624 15.84795019 -13.97514921 13.73828227 -11.5234375 11.328125 C-10.51796875 10.33232422 -10.51796875 10.33232422 -9.4921875 9.31640625 C-8.79351562 8.63449219 -8.09484375 7.95257813 -7.375 7.25 C-6.66859375 6.55261719 -5.9621875 5.85523437 -5.234375 5.13671875 C-3.49401297 3.41987512 -1.74915019 1.70788168 0 0 Z " fill="#444444" transform="translate(85,110)"/>
<path d="M0 0 C4.82382465 0.26799026 6.86565605 2.50744532 10 6 C9.34 7.65 8.68 9.3 8 11 C6.86800647 10.0919838 5.74467637 9.17316174 4.625 8.25 C3.99851562 7.73953125 3.37203125 7.2290625 2.7265625 6.703125 C0.91687682 4.91800519 -0.00117455 3.32050356 -1 1 C-0.67 0.67 -0.34 0.34 0 0 Z " fill="#006C15" transform="translate(64,144)"/>
<path d="M0 0 C0.99 0.66 1.98 1.32 3 2 C2.01 4.64 1.02 7.28 0 10 C0.66 10.33 1.32 10.66 2 11 C1.34 12.32 0.68 13.64 0 15 C0 14.34 0 13.68 0 13 C-1.32 13 -2.64 13 -4 13 C-3.52343588 11.20763933 -3.04366502 9.41613103 -2.5625 7.625 C-2.29566406 6.62726563 -2.02882813 5.62953125 -1.75390625 4.6015625 C-1 2 -1 2 0 0 Z " fill="#1A1F1C" transform="translate(90,140)"/>
<path d="M0 0 C0.99 0.33 1.98 0.66 3 1 C2.54857225 2.77260631 2.08859477 4.5430368 1.625 6.3125 C1.36976562 7.29863281 1.11453125 8.28476563 0.8515625 9.30078125 C0 12 0 12 -2 15 C-2.66 15 -3.32 15 -4 15 C-2.9318153 9.88634986 -1.76892524 4.92772031 0 0 Z " fill="#0B1910" transform="translate(104,129)"/>
<path d="M0 0 C0.33 0.99 0.66 1.98 1 3 C-2.63 6.63 -6.26 10.26 -10 14 C-10.66 12.68 -11.32 11.36 -12 10 C-11.13375 9.46375 -10.2675 8.9275 -9.375 8.375 C-5.77876937 5.99463782 -2.97201894 3.11354365 0 0 Z " fill="#004803" transform="translate(124,136)"/>
<path d="M0 0 C3.63 0.33 7.26 0.66 11 1 C11 3.64 11 6.28 11 9 C10.690625 8.360625 10.38125 7.72125 10.0625 7.0625 C6.90231425 3.90231425 3.31666092 4.18099207 -1 4 C-0.34 3.67 0.32 3.34 1 3 C0.67 2.01 0.34 1.02 0 0 Z " fill="#5D5D5D" transform="translate(114,26)"/>
<path d="M0 0 C0.33 0 0.66 0 1 0 C1.33 2.64 1.66 5.28 2 8 C5.3 8.33 8.6 8.66 12 9 C11.01 9.495 11.01 9.495 10 10 C10 10.66 10 11.32 10 12 C6.7 12 3.4 12 0 12 C0 8 0 4 0 0 Z " fill="#676767" transform="translate(20,18)"/>
<path d="M0 0 C0.375 2.6875 0.375 2.6875 0 6 C-1.823983 8.06398076 -3.72763839 9.39041053 -6 11 C-6.875 8.875 -6.875 8.875 -7 6 C-2.55971897 0 -2.55971897 0 0 0 Z " fill="#5AE086" transform="translate(90,7)"/>
<path d="M0 0 C0.66 0.33 1.32 0.66 2 1 C2.34375 3.6328125 2.34375 3.6328125 2 7 C0.20515074 9.23190671 -1.40661449 10.98220917 -3.5 12.875 C-4.02464844 13.37257813 -4.54929688 13.87015625 -5.08984375 14.3828125 C-6.38004502 15.60263915 -7.68831732 16.80330249 -9 18 C-9.66 17.67 -10.32 17.34 -11 17 C-10.28972656 16.27554688 -9.57945312 15.55109375 -8.84765625 14.8046875 C-7.91862695 13.82873753 -6.99027712 12.85214043 -6.0625 11.875 C-5.59392578 11.400625 -5.12535156 10.92625 -4.64257812 10.4375 C-1.47928778 7.0693923 -0.32085374 4.6011792 0 0 Z " fill="#575757" transform="translate(169,18)"/>
<path d="M0 0 C0.99 0.99 1.98 1.98 3 3 C2.34 3.66 1.68 4.32 1 5 C0.67 3.35 0.34 1.7 0 0 Z " fill="#015C06" transform="translate(166,88)"/>
<path d="M0 0 C1.98 0 3.96 0 6 0 C5.04956626 1.33897583 4.08940853 2.67105427 3.125 4 C2.59132813 4.7425 2.05765625 5.485 1.5078125 6.25 C1.01023437 6.8275 0.51265625 7.405 0 8 C-0.66 8 -1.32 8 -2 8 C-1.125 2.25 -1.125 2.25 0 0 Z " fill="#008D2F" transform="translate(118,133)"/>
<path d="M0 0 C0.99 0.33 1.98 0.66 3 1 C1.70700306 3.88437779 0.34058637 5.87219421 -2 8 C-2.99 7.67 -3.98 7.34 -5 7 C-4.54625 6.5875 -4.0925 6.175 -3.625 5.75 C-1.94049626 3.93591905 -1.00734029 2.24714373 0 0 Z " fill="#727272" transform="translate(85,110)"/>
<path d="M0 0 C1.0326802 2.78823655 1.04509293 3.8677274 0.0625 6.75 C-0.288125 7.4925 -0.63875 8.235 -1 9 C-1.99 9 -2.98 9 -4 9 C-4 7.68 -4 6.36 -4 5 C-3.34 5 -2.68 5 -2 5 C-1.7834375 4.0409375 -1.7834375 4.0409375 -1.5625 3.0625 C-1 1 -1 1 0 0 Z " fill="#08110A" transform="translate(76,145)"/>
<path d="M0 0 C1.0326802 2.78823655 1.04509293 3.8677274 0.0625 6.75 C-0.288125 7.4925 -0.63875 8.235 -1 9 C-1.66 9 -2.32 9 -3 9 C-2.25 2.25 -2.25 2.25 0 0 Z " fill="#0B0D0C" transform="translate(94,132)"/>
<path d="M0 0 C0.66 0 1.32 0 2 0 C1.67 0.99 1.34 1.98 1 3 C0.90796257 4.51861755 0.86998716 6.04110426 0.875 7.5625 C0.87242188 8.34753906 0.86984375 9.13257813 0.8671875 9.94140625 C0.87023634 12.06438977 0.87023634 12.06438977 2 14 C1.01 14 0.02 14 -1 14 C-1.02685938 11.85423363 -1.04633088 9.70837355 -1.0625 7.5625 C-1.07410156 6.36753906 -1.08570312 5.17257813 -1.09765625 3.94140625 C-1 1 -1 1 0 0 Z " fill="#F1F1F1" transform="translate(20,15)"/>
</svg>
