<?xml version="1.0" encoding="UTF-8"?>
<svg version="1.1" xmlns="http://www.w3.org/2000/svg" width="494" height="505">
<path d="M0 0 C3.25742104 1.95346102 6.62248697 3.60720792 10.03125 5.27734375 C14.61789466 7.56006521 19.08419566 10.05919538 23.56640625 12.5390625 C24.93356214 13.2904221 26.30075205 14.04171981 27.66796875 14.79296875 C36.01166757 19.39074116 44.29172901 24.07564674 52.46923828 28.96386719 C58.08671001 32.30857811 63.81776371 35.42653243 69.56640625 38.5390625 C71.48223174 39.58509378 73.39759687 40.63196867 75.3125 41.6796875 C76.72112305 42.44925781 76.72112305 42.44925781 78.15820312 43.234375 C80.08297114 44.2859298 82.00744227 45.33802817 83.93164062 46.390625 C84.86169922 46.89851563 85.79175781 47.40640625 86.75 47.9296875 C87.58072021 48.38375977 88.41144043 48.83783203 89.26733398 49.30566406 C91.3495945 50.42274807 93.44679745 51.49494424 95.56640625 52.5390625 C95.56640625 53.1990625 95.56640625 53.8590625 95.56640625 54.5390625 C96.25476563 54.62800781 96.943125 54.71695313 97.65234375 54.80859375 C101.21465386 55.70155889 104.07386712 57.35612512 107.19140625 59.2265625 C108.44609887 59.96181826 109.70131245 60.69618569 110.95703125 61.4296875 C111.88032227 61.97206055 111.88032227 61.97206055 112.82226562 62.52539062 C115.17017146 63.889963 117.55139148 65.18740302 119.94140625 66.4765625 C129.96746127 71.91166175 139.95239391 77.43743695 149.6484375 83.4453125 C151.67513774 84.68378152 151.67513774 84.68378152 154.56640625 85.5390625 C154.56640625 86.1990625 154.56640625 86.8590625 154.56640625 87.5390625 C155.27579346 87.64323486 155.98518066 87.74740723 156.71606445 87.85473633 C159.92934861 88.62619975 162.2989808 89.85881723 165.171875 91.48828125 C166.77192383 92.39030273 166.77192383 92.39030273 168.40429688 93.31054688 C169.50966797 93.94283203 170.61503906 94.57511719 171.75390625 95.2265625 C172.83994141 95.83951172 173.92597656 96.45246094 175.04492188 97.08398438 C202.20980573 112.46926094 202.20980573 112.46926094 206.56640625 125.5390625 C206.65934578 126.88413826 206.69901583 128.23331407 206.70342064 129.5815897 C206.71103245 130.81964606 206.71103245 130.81964606 206.71879804 132.08271366 C206.7192958 132.98930869 206.71979356 133.89590371 206.7203064 134.82997131 C206.72468865 135.79328084 206.7290709 136.75659037 206.73358595 137.74909109 C206.74698882 140.99166488 206.75315621 144.23421149 206.75927734 147.47680664 C206.76717723 149.7959709 206.77544611 152.11513393 206.78405762 154.43429565 C206.81029403 162.06425805 206.82558832 169.69422598 206.83984375 177.32421875 C206.84520304 179.94996075 206.85058054 182.5757027 206.8559761 185.20144463 C206.87760848 196.12436593 206.89649609 207.04728592 206.9075985 217.97022343 C206.9105281 220.80461188 206.91348977 223.6390003 206.91650391 226.47338867 C206.91724996 227.17784476 206.91799601 227.88230086 206.91876467 228.6081041 C206.93140929 240.01142006 206.96462041 251.41457978 207.00630574 262.81782276 C207.04877453 274.5316756 207.07229934 286.24544858 207.07751906 297.95937818 C207.08117227 304.53370625 207.09319082 311.10776958 207.1256218 317.682024 C207.15570912 323.87004634 207.16201147 330.05764384 207.15023804 336.24572372 C207.15001735 338.51363522 207.158318 340.78156645 207.17589188 343.04940987 C207.19862907 346.15320439 207.19026641 349.25546437 207.17440796 352.35926819 C207.18829005 353.25024816 207.20217213 354.14122813 207.21647489 355.0592075 C207.12296875 362.52085848 204.75687231 368.92098554 199.77971876 374.56521565 C194.75777873 379.43483764 188.57650133 382.40478095 182.40966797 385.57373047 C179.10911458 387.30225869 175.87146025 389.14218554 172.62890625 390.9765625 C171.95569336 391.35651367 171.28248047 391.73646484 170.58886719 392.12792969 C161.81929287 397.08318124 153.06625811 402.06569384 144.37890625 407.1640625 C139.70927024 409.89886925 134.98105694 412.50126313 130.21875 415.0703125 C127.60408964 416.51819512 125.05348134 418.04238397 122.50390625 419.6015625 C109.39341812 427.5390625 109.39341812 427.5390625 104.56640625 427.5390625 C104.56640625 428.1990625 104.56640625 428.8590625 104.56640625 429.5390625 C103.85355469 429.92578125 103.14070313 430.3125 102.40625 430.7109375 C101.44847656 431.23171875 100.49070312 431.7525 99.50390625 432.2890625 C98.50230469 432.83304687 97.50070312 433.37703125 96.46875 433.9375 C94.13911089 435.22303437 91.84953995 436.54909225 89.56640625 437.9140625 C86.56640625 439.5390625 86.56640625 439.5390625 83.56640625 439.5390625 C83.56640625 440.1990625 83.56640625 440.8590625 83.56640625 441.5390625 C77.58336495 444.84654151 71.56348921 448.07077713 65.50317383 451.23388672 C58.8199034 454.72404631 52.20648903 458.23695668 45.78515625 462.1953125 C42.51609787 464.17516476 39.15406456 465.9712304 35.79296875 467.7890625 C24.18240805 474.08631576 12.69433249 480.57099648 1.3359375 487.3125 C0.07960479 488.05498828 -1.17690206 488.79718197 -2.43359375 489.5390625 C-3.37561646 490.09980469 -3.37561646 490.09980469 -4.33666992 490.671875 C-10.93171646 494.53802733 -17.69653594 496.64995762 -25.43359375 495.5390625 C-33.78197926 493.17271878 -41.14550056 489.16737486 -48.62109375 484.8515625 C-50.25921021 483.91944946 -50.25921021 483.91944946 -51.93041992 482.96850586 C-54.10615483 481.73025271 -56.28011943 480.48888286 -58.45214844 479.24414062 C-61.71818541 477.37630553 -64.9977567 475.53412037 -68.28222656 473.69897461 C-74.48588729 470.23235912 -80.63885672 466.68397235 -86.76953125 463.08984375 C-91.49192792 460.34088264 -96.27386863 457.70493181 -101.08203125 455.109375 C-105.59007559 452.67225299 -110.05229015 450.19839575 -114.43359375 447.5390625 C-118.67395591 444.96693059 -122.98798346 442.57447239 -127.3515625 440.21875 C-130.87776857 438.29699004 -134.37502475 436.32743265 -137.87109375 434.3515625 C-144.11585269 430.82405221 -150.39274404 427.35863018 -156.68359375 423.9140625 C-163.10362807 420.39691594 -169.46504474 416.81037875 -175.76953125 413.08984375 C-179.33039627 411.0170235 -182.94372343 409.04875336 -186.5703125 407.09375 C-188.8972999 405.83025616 -191.21168509 404.54875738 -193.5234375 403.2578125 C-197.05744222 401.29068561 -200.61034597 399.36268389 -204.17578125 397.453125 C-205.68205078 396.64488281 -205.68205078 396.64488281 -207.21875 395.8203125 C-209.26932595 394.72114157 -211.32139945 393.62475959 -213.375 392.53125 C-219.48459135 389.24568231 -225.36904387 385.75532229 -231.16064453 381.93505859 C-233.46094338 380.40381708 -233.46094338 380.40381708 -236.43359375 379.5390625 C-236.43359375 378.8790625 -236.43359375 378.2190625 -236.43359375 377.5390625 C-236.99046875 377.4978125 -237.54734375 377.4565625 -238.12109375 377.4140625 C-242.38862914 375.79931938 -244.55386441 372.28227951 -246.53511387 368.35635865 C-249.13193496 362.23369286 -250.00736385 357.1240967 -249.93479919 350.50680542 C-249.94033359 349.54835445 -249.94586799 348.58990347 -249.95157009 347.60240853 C-249.96509081 344.4180994 -249.950254 341.23458579 -249.93530273 338.05029297 C-249.93908897 335.75640532 -249.94459151 333.46251997 -249.95167542 331.16864014 C-249.96560583 324.95805167 -249.95447766 318.74774099 -249.9379642 312.53716803 C-249.92408796 306.03064615 -249.93057659 299.52413998 -249.93409729 293.01760864 C-249.93679698 282.09453776 -249.92343128 271.17157943 -249.90014648 260.24853516 C-249.87621747 249.02193114 -249.86914779 237.7954726 -249.87963867 226.56884766 C-249.89227798 213.01895628 -249.8897472 199.46917649 -249.87397957 185.91928482 C-249.86822575 180.75120598 -249.8682977 175.58317583 -249.87304497 170.41509628 C-249.87782113 164.32962708 -249.86768629 158.2443589 -249.84609032 152.15892792 C-249.84053153 149.92728224 -249.84004879 147.6956172 -249.84504318 145.46397018 C-249.85101073 142.41487535 -249.83846232 139.3663921 -249.8212738 136.31735229 C-249.82728385 135.43699432 -249.83329389 134.55663635 -249.83948606 133.64960086 C-249.7472597 124.63587563 -246.8242971 117.02474445 -240.43359375 110.5390625 C-237.26588421 108.21724225 -233.88836253 106.39752213 -230.43359375 104.5390625 C-228.22323549 103.2717544 -226.01503883 102.00067144 -223.80859375 100.7265625 C-214.10326009 95.19020497 -204.38955801 89.66222444 -194.55859375 84.3515625 C-191.12980763 82.49387689 -187.76780058 80.56153592 -184.43359375 78.5390625 C-180.20470995 75.97389317 -175.90291792 73.58695557 -171.55078125 71.23828125 C-167.82475551 69.20717699 -164.12872173 67.12569244 -160.43359375 65.0390625 C-155.82827075 62.43844761 -151.21317971 59.86345663 -146.55859375 57.3515625 C-143.12980763 55.49387689 -139.76780058 53.56153592 -136.43359375 51.5390625 C-129.94766164 47.60881165 -123.27290498 44.04709401 -116.578125 40.48828125 C-115.91256592 40.13427246 -115.24700684 39.78026367 -114.5612793 39.41552734 C-113.25757107 38.72290751 -111.9530847 38.03174975 -110.64770508 37.34228516 C-107.93283758 35.9025114 -105.27641279 34.43998952 -102.67578125 32.80078125 C-100.43359375 31.5390625 -100.43359375 31.5390625 -97.43359375 31.5390625 C-97.43359375 30.8790625 -97.43359375 30.2190625 -97.43359375 29.5390625 C-91.45055245 26.23158349 -85.43067671 23.00734787 -79.37036133 19.84423828 C-72.69507651 16.35824896 -66.08613342 12.85386641 -59.67578125 8.89453125 C-56.28504606 6.8447314 -52.79105709 4.99476874 -49.30078125 3.12109375 C-46.21378911 1.41778065 -43.20374558 -0.39206801 -40.18359375 -2.2109375 C-25.69407801 -10.62600241 -13.56047521 -8.40542433 0 0 Z " fill="#3544A5" transform="translate(268.43359375,8.4609375)"/>
<path d="M0 0 C0.94527054 -0.00807175 1.89054108 -0.01614349 2.86445618 -0.02445984 C4.86738273 -0.03826134 6.87033242 -0.049001 8.87329102 -0.05688477 C10.88508186 -0.068309 12.89684475 -0.08860546 14.90844727 -0.1184082 C27.87041511 -0.30998547 39.76410012 0.57501741 52.34838867 3.76794434 C54.9626124 4.41854529 57.59917278 4.94916613 60.23828125 5.48828125 C80.66797666 10.72518909 106.57644745 22.72153002 121.23828125 38.23828125 C122.39874336 39.24547478 123.56602293 40.244842 124.73828125 41.23828125 C134.48089832 49.76753209 142.61770419 58.81962429 150.23828125 69.23828125 C150.96917969 70.19734375 151.70007813 71.15640625 152.453125 72.14453125 C153.10410156 73.02109375 153.75507813 73.89765625 154.42578125 74.80078125 C154.99683594 75.56519531 155.56789063 76.32960938 156.15625 77.1171875 C157.23828125 79.23828125 157.23828125 79.23828125 157.01708984 81.25415039 C155.83806054 84.2579031 153.46493954 84.82887779 150.66357422 86.10839844 C146.06558511 88.25048557 141.70861932 90.85873564 137.30078125 93.36328125 C136.29168701 93.9351416 135.28259277 94.50700195 134.24291992 95.09619141 C126.13998643 99.69985379 118.09465145 104.39582119 110.078125 109.14794922 C107.23937041 110.83025787 104.39652138 112.50530389 101.55078125 114.17578125 C100.66003906 114.70042969 99.76929688 115.22507812 98.8515625 115.765625 C96.96089129 116.83107051 95.03629059 117.83703685 93.09375 118.8046875 C90.14432454 120.21251401 90.14432454 120.21251401 87.23828125 122.23828125 C84.232689 122.11733186 83.33682294 121.34407153 81.2734375 119.12890625 C80.29697266 117.82179687 80.29697266 117.82179687 79.30078125 116.48828125 C76.0495126 112.23162286 76.0495126 112.23162286 72.36328125 108.36328125 C70.23828125 106.23828125 70.23828125 106.23828125 69.23828125 104.05078125 C67.81140221 101.46456299 65.95061039 101.30594193 63.23828125 100.23828125 C61.81732775 99.33931067 60.4211107 98.40018062 59.05078125 97.42578125 C54.28011535 94.20362658 49.5252136 91.52374038 44.23828125 89.23828125 C43.20316406 88.7690625 42.16804687 88.29984375 41.1015625 87.81640625 C22.53158208 80.66947324 -0.80292902 81.63501753 -19.00683594 89.45214844 C-19.58594727 89.71157227 -20.16505859 89.97099609 -20.76171875 90.23828125 C-21.66148437 90.63273437 -22.56125 91.0271875 -23.48828125 91.43359375 C-25.72335777 92.5629787 -27.70833458 93.80550946 -29.76171875 95.23828125 C-30.70015625 95.88539063 -31.63859375 96.5325 -32.60546875 97.19921875 C-44.34324485 105.64686064 -52.69419619 114.69265715 -59.76171875 127.23828125 C-60.43976563 128.36492187 -61.1178125 129.4915625 -61.81640625 130.65234375 C-71.28117759 147.35205047 -71.72118788 170.49085491 -66.9609375 188.6628418 C-62.31005477 204.0062828 -54.60540105 218.26752789 -41.76171875 228.23828125 C-40.97796875 229.04265625 -40.19421875 229.84703125 -39.38671875 230.67578125 C-25.90239466 243.83905 -6.00388184 249.80486342 12.48828125 249.86328125 C27.31956262 249.62812537 42.69789317 246.59853997 55.23828125 238.23828125 C56.22828125 238.23828125 57.21828125 238.23828125 58.23828125 238.23828125 C58.23828125 237.57828125 58.23828125 236.91828125 58.23828125 236.23828125 C59.8203125 235.1171875 59.8203125 235.1171875 62.05078125 233.80078125 C71.72198028 227.54115479 79.10055564 218.89524884 85.23828125 209.23828125 C92.16054252 212.14392178 98.68226052 215.59098182 105.23828125 219.23828125 C107.00852366 220.19770571 108.779359 221.15603692 110.55078125 222.11328125 C116.07758553 225.12284852 121.52869754 228.25680013 126.9765625 231.40625 C128.95265689 232.51617607 130.94981731 233.59100853 132.98046875 234.59765625 C137.76152215 237.00538099 142.39773987 239.65592791 147.05078125 242.30078125 C148.01693359 242.84283203 148.98308594 243.38488281 149.97851562 243.94335938 C151.35426758 244.72549805 151.35426758 244.72549805 152.7578125 245.5234375 C153.59417236 245.996604 154.43053223 246.46977051 155.29223633 246.95727539 C157.23828125 248.23828125 157.23828125 248.23828125 158.23828125 250.23828125 C156.27022139 254.8705854 153.54403738 258.92172252 150.61328125 262.98828125 C150.17669189 263.59663818 149.74010254 264.20499512 149.2902832 264.83178711 C143.90846314 272.21442821 137.78511806 278.87330102 131.23828125 285.23828125 C130.15546875 286.35203125 130.15546875 286.35203125 129.05078125 287.48828125 C116.27285078 299.98225771 102.36532702 309.03264031 86.67578125 317.42578125 C85.88437744 317.85415283 85.09297363 318.28252441 84.27758789 318.72387695 C79.05884525 321.4817139 73.89239078 323.55776991 68.23828125 325.23828125 C67.18120972 325.55962036 67.18120972 325.55962036 66.1027832 325.88745117 C63.96584529 326.52506005 61.82261659 327.13490958 59.67578125 327.73828125 C58.99193359 327.93808594 58.30808594 328.13789063 57.60351562 328.34375 C43.65512047 332.26478498 30.45471411 333.73075845 16.02075195 333.62939453 C13.30694177 333.61331775 10.59462471 333.6293351 7.88085938 333.6484375 C-6.32585871 333.66600441 -19.95881865 332.11599917 -33.57421875 327.86328125 C-34.27667725 327.64905518 -34.97913574 327.4348291 -35.70288086 327.21411133 C-62.04996808 318.98760734 -86.77238859 304.2916687 -105.76171875 284.23828125 C-106.60734375 283.41328125 -107.45296875 282.58828125 -108.32421875 281.73828125 C-109.12859375 280.91328125 -109.93296875 280.08828125 -110.76171875 279.23828125 C-111.5815625 278.41263672 -111.5815625 278.41263672 -112.41796875 277.5703125 C-119.62821931 269.93158393 -125.10107915 261.04018316 -130.76171875 252.23828125 C-131.37402344 251.30628906 -131.98632812 250.37429688 -132.6171875 249.4140625 C-147.46975522 225.96054404 -153.95009933 196.81095141 -153.94702148 169.35961914 C-153.94918932 167.20503405 -153.96734037 165.05097804 -153.98632812 162.89648438 C-154.04052444 149.93985283 -152.63952584 137.4421745 -149.38671875 124.86328125 C-149.0928125 123.64705078 -149.0928125 123.64705078 -148.79296875 122.40625 C-147.53629093 117.43521431 -145.84433338 112.9171484 -143.6784668 108.27246094 C-142.65581863 106.09754659 -142.65581863 106.09754659 -141.7421875 103.15234375 C-140.50004294 99.46055155 -138.83374244 96.08239222 -137.07421875 92.61328125 C-136.71900146 91.91178955 -136.36378418 91.21029785 -135.99780273 90.48754883 C-130.52574061 79.7787952 -124.57966249 70.4027939 -116.76171875 61.23828125 C-115.17532907 59.28242296 -113.59194297 57.32412426 -112.01171875 55.36328125 C-107.36586465 49.5989808 -102.22440512 44.63511279 -96.57421875 39.86328125 C-96.00687012 39.38358887 -95.43952148 38.90389648 -94.85498047 38.40966797 C-90.77720178 35.00101622 -86.58353346 31.84593711 -82.17578125 28.87109375 C-80.83059172 27.96124063 -79.49271818 27.03923168 -78.18725586 26.07324219 C-74.0041158 22.98491521 -69.74620935 20.51104875 -65.07421875 18.23828125 C-64.37578857 17.89506836 -63.6773584 17.55185547 -62.95776367 17.19824219 C-43.55610536 7.75827753 -21.75867498 0.17983794 0 0 Z " fill="#FCFCFC" transform="translate(233.76171875,85.76171875)"/>
<path d="M0 0 C3.25742104 1.95346102 6.62248697 3.60720792 10.03125 5.27734375 C14.61789466 7.56006521 19.08419566 10.05919538 23.56640625 12.5390625 C24.93356214 13.2904221 26.30075205 14.04171981 27.66796875 14.79296875 C36.01166757 19.39074116 44.29172901 24.07564674 52.46923828 28.96386719 C58.08671001 32.30857811 63.81776371 35.42653243 69.56640625 38.5390625 C71.48223174 39.58509378 73.39759687 40.63196867 75.3125 41.6796875 C76.72112305 42.44925781 76.72112305 42.44925781 78.15820312 43.234375 C80.08297114 44.2859298 82.00744227 45.33802817 83.93164062 46.390625 C84.86169922 46.89851563 85.79175781 47.40640625 86.75 47.9296875 C87.58072021 48.38375977 88.41144043 48.83783203 89.26733398 49.30566406 C91.3495945 50.42274807 93.44679745 51.49494424 95.56640625 52.5390625 C95.56640625 53.1990625 95.56640625 53.8590625 95.56640625 54.5390625 C96.25476563 54.62800781 96.943125 54.71695313 97.65234375 54.80859375 C101.21465386 55.70155889 104.07386712 57.35612512 107.19140625 59.2265625 C108.44609887 59.96181826 109.70131245 60.69618569 110.95703125 61.4296875 C111.88032227 61.97206055 111.88032227 61.97206055 112.82226562 62.52539062 C115.17017146 63.889963 117.55139148 65.18740302 119.94140625 66.4765625 C129.96746127 71.91166175 139.95239391 77.43743695 149.6484375 83.4453125 C151.67513774 84.68378152 151.67513774 84.68378152 154.56640625 85.5390625 C154.56640625 86.1990625 154.56640625 86.8590625 154.56640625 87.5390625 C155.27579346 87.64323486 155.98518066 87.74740723 156.71606445 87.85473633 C159.92934861 88.62619975 162.2989808 89.85881723 165.171875 91.48828125 C166.77192383 92.39030273 166.77192383 92.39030273 168.40429688 93.31054688 C169.50966797 93.94283203 170.61503906 94.57511719 171.75390625 95.2265625 C172.83994141 95.83951172 173.92597656 96.45246094 175.04492188 97.08398438 C199.57647899 110.97783324 199.57647899 110.97783324 202.56640625 117.5390625 C202.00953125 117.56484375 201.45265625 117.590625 200.87890625 117.6171875 C195.62347648 118.00779377 191.78179506 119.09557915 187.1953125 121.69921875 C185.56640625 122.5390625 185.56640625 122.5390625 183.56640625 122.5390625 C183.56640625 123.1990625 183.56640625 123.8590625 183.56640625 124.5390625 C182.90640625 124.5390625 182.24640625 124.5390625 181.56640625 124.5390625 C181.56640625 125.1990625 181.56640625 125.8590625 181.56640625 126.5390625 C181.03273438 126.75820312 180.4990625 126.97734375 179.94921875 127.203125 C174.53764031 129.50632274 169.60345458 132.22455933 164.6328125 135.3671875 C162.56640625 136.5390625 162.56640625 136.5390625 160.56640625 136.5390625 C160.56640625 137.1990625 160.56640625 137.8590625 160.56640625 138.5390625 C159.11234375 139.126875 159.11234375 139.126875 157.62890625 139.7265625 C153.94954163 141.30448641 150.50074264 143.18084138 147.01953125 145.15234375 C144.38317285 146.64264189 141.72744685 148.09332955 139.06640625 149.5390625 C138.14988281 150.03921875 137.23335938 150.539375 136.2890625 151.0546875 C134.5068013 152.02636505 132.72300186 152.99522773 130.9375 153.9609375 C130.13441406 154.39921875 129.33132813 154.8375 128.50390625 155.2890625 C127.79105469 155.67578125 127.07820313 156.0625 126.34375 156.4609375 C124.40834329 157.53856336 124.40834329 157.53856336 122.56640625 159.5390625 C122.01082031 158.53230469 121.45523437 157.52554688 120.8828125 156.48828125 C112.90108334 142.54564686 102.01479482 129.65337821 89.56640625 119.5390625 C89.07140625 119.03503906 88.57640625 118.53101562 88.06640625 118.01171875 C86.42910278 116.31240743 86.42910278 116.31240743 83.56640625 114.5390625 C83.56640625 113.8790625 83.56640625 113.2190625 83.56640625 112.5390625 C82.53773438 112.19294922 82.53773438 112.19294922 81.48828125 111.83984375 C77.9088407 110.24632275 74.93852236 108.05462424 71.81640625 105.7265625 C65.00407683 100.75766348 58.26552252 96.65786642 50.47924805 93.37133789 C48.54332243 92.52901876 46.64709198 91.62519072 44.74609375 90.70703125 C22.97663056 80.47707827 0.99375362 77.98821229 -22.74609375 77.9765625 C-23.70441101 77.97366211 -24.66272827 77.97076172 -25.65008545 77.96777344 C-62.61846533 77.98045202 -97.78733163 91.14714122 -126.43359375 114.5390625 C-127.33980469 115.24933594 -128.24601562 115.95960937 -129.1796875 116.69140625 C-134.14421292 120.6320404 -138.64776101 124.56395357 -142.69140625 129.44921875 C-144.69260096 131.84975501 -146.80942815 134.12182319 -148.93359375 136.4140625 C-153.23083404 141.17250575 -156.89523368 146.20139037 -160.43359375 151.5390625 C-161.07554687 152.46074219 -161.7175 153.38242188 -162.37890625 154.33203125 C-164.71265919 157.97463802 -166.61201286 161.71360368 -168.49609375 165.6015625 C-172.08473658 172.96340693 -172.08473658 172.96340693 -174.0859375 176.265625 C-175.38509627 178.45724937 -176.18812081 180.42433812 -176.93359375 182.8515625 C-177.81157299 185.6788647 -178.77212236 188.39463344 -179.86328125 191.15234375 C-181.74355581 196.13019052 -182.90297451 201.22804284 -184.05859375 206.4140625 C-184.27515625 207.34347656 -184.49171875 208.27289063 -184.71484375 209.23046875 C-187.29900018 220.66775371 -187.67244106 231.90977068 -187.68359375 243.6015625 C-187.68460083 244.33583466 -187.68560791 245.07010681 -187.68664551 245.82662964 C-187.6765507 256.71135866 -187.10298018 266.94137024 -184.43359375 277.5390625 C-184.12659414 278.88358874 -183.82196915 280.22865905 -183.51953125 281.57421875 C-180.43044293 294.95920494 -176.28668295 307.6241961 -169.69140625 319.7109375 C-168.43359375 322.5390625 -168.43359375 322.5390625 -169.43359375 325.5390625 C-171.57226563 327.00610352 -171.57226563 327.00610352 -174.40234375 328.54296875 C-175.44052246 329.11402344 -176.47870117 329.68507813 -177.54833984 330.2734375 C-179.22404053 331.17835938 -179.22404053 331.17835938 -180.93359375 332.1015625 C-183.22868357 333.36179088 -185.52295224 334.62351586 -187.81640625 335.88671875 C-188.94594727 336.50691895 -190.07548828 337.12711914 -191.23925781 337.76611328 C-195.47404445 340.11654286 -199.64853574 342.55941007 -203.80859375 345.0390625 C-209.17119802 348.22794803 -214.58055198 351.2857269 -220.078125 354.23828125 C-222.98852117 355.84551496 -225.78922712 357.59525264 -228.59375 359.37890625 C-236.16449358 364.15281462 -236.16449358 364.15281462 -240.30859375 365.4140625 C-241.00984375 365.7853125 -241.71109375 366.1565625 -242.43359375 366.5390625 C-243.33190214 369.59178715 -243.33190214 369.59178715 -243.43359375 372.5390625 C-249.07484838 366.09191436 -249.87663251 358.9276596 -249.81454468 350.74731445 C-249.81922465 349.79057233 -249.82390462 348.8338302 -249.82872641 347.84809589 C-249.84064617 344.65770214 -249.83123084 341.46774033 -249.82177734 338.27734375 C-249.82584438 335.98375193 -249.83118699 333.69016208 -249.83770752 331.39657593 C-249.85137115 325.17765361 -249.8460863 318.95888079 -249.83657026 312.7399559 C-249.8289688 306.22808177 -249.83602064 299.71622034 -249.84072876 293.2043457 C-249.84653424 281.569159 -249.8372181 269.93404045 -249.82195075 258.29886448 C-249.8085483 247.75877966 -249.81087663 237.21879397 -249.82470703 226.67871094 C-249.8407775 214.42582697 -249.84672916 202.17301356 -249.83787024 189.92011929 C-249.83319598 183.43879758 -249.83256216 176.95754411 -249.84247971 170.47622681 C-249.85115291 164.38258704 -249.84512073 158.28913427 -249.82779694 152.19551468 C-249.82383403 149.96064184 -249.82496277 147.72575323 -249.83158493 145.49088669 C-249.83979801 142.43731631 -249.82948125 139.38434302 -249.81454468 136.33081055 C-249.82123684 135.44908834 -249.82792901 134.56736612 -249.83482397 133.65892506 C-249.74941443 124.63995052 -246.82807462 117.02857811 -240.43359375 110.5390625 C-237.26588421 108.21724225 -233.88836253 106.39752213 -230.43359375 104.5390625 C-228.22323549 103.2717544 -226.01503883 102.00067144 -223.80859375 100.7265625 C-214.10326009 95.19020497 -204.38955801 89.66222444 -194.55859375 84.3515625 C-191.12980763 82.49387689 -187.76780058 80.56153592 -184.43359375 78.5390625 C-180.20470995 75.97389317 -175.90291792 73.58695557 -171.55078125 71.23828125 C-167.82475551 69.20717699 -164.12872173 67.12569244 -160.43359375 65.0390625 C-155.82827075 62.43844761 -151.21317971 59.86345663 -146.55859375 57.3515625 C-143.12980763 55.49387689 -139.76780058 53.56153592 -136.43359375 51.5390625 C-129.94766164 47.60881165 -123.27290498 44.04709401 -116.578125 40.48828125 C-115.91256592 40.13427246 -115.24700684 39.78026367 -114.5612793 39.41552734 C-113.25757107 38.72290751 -111.9530847 38.03174975 -110.64770508 37.34228516 C-107.93283758 35.9025114 -105.27641279 34.43998952 -102.67578125 32.80078125 C-100.43359375 31.5390625 -100.43359375 31.5390625 -97.43359375 31.5390625 C-97.43359375 30.8790625 -97.43359375 30.2190625 -97.43359375 29.5390625 C-91.45055245 26.23158349 -85.43067671 23.00734787 -79.37036133 19.84423828 C-72.69507651 16.35824896 -66.08613342 12.85386641 -59.67578125 8.89453125 C-56.28504606 6.8447314 -52.79105709 4.99476874 -49.30078125 3.12109375 C-46.21378911 1.41778065 -43.20374558 -0.39206801 -40.18359375 -2.2109375 C-25.69407801 -10.62600241 -13.56047521 -8.40542433 0 0 Z " fill="#5C6BBF" transform="translate(268.43359375,8.4609375)"/>
<path d="M0 0 C1.5078125 2.30078125 1.5078125 2.30078125 3.125 5.3125 C6.89119713 11.99650879 11.27987896 17.96510475 16 24 C16.68320313 24.90105469 17.36640625 25.80210937 18.0703125 26.73046875 C21.67017965 31.39617892 25.34009966 35.45833468 29.875 39.22265625 C32.28481004 41.23821428 34.57065619 43.36488144 36.875 45.5 C54.89882331 61.66963271 77.07989052 71.90633964 100 79 C101.03511719 79.32097656 102.07023438 79.64195312 103.13671875 79.97265625 C115.96232392 83.69863498 128.56151424 84.37297738 141.82641602 84.37060547 C144.53401828 84.37495425 147.23995244 84.4113267 149.94726562 84.44921875 C168.15216302 84.56633093 184.82906609 80.82096484 202 75 C202.70157227 74.78456543 203.40314453 74.56913086 204.12597656 74.34716797 C209.88525117 72.54473296 215.06938817 70.11087444 220.375 67.25 C221.20862061 66.80390381 222.04224121 66.35780762 222.90112305 65.89819336 C235.14024255 59.28737772 247.47958767 51.67467719 257.28515625 41.66796875 C259 40 259 40 261 40 C261.226875 39.443125 261.45375 38.88625 261.6875 38.3125 C262.99693793 36.00539508 264.48901712 34.4281826 266.38671875 32.59765625 C273.08073976 25.96846838 278.79123468 18.83344188 284 11 C284.42410156 10.38769531 284.84820312 9.77539062 285.28515625 9.14453125 C286.92922275 6.75798311 288.07601699 4.77194902 289 2 C293.80374624 2.52261323 296.97236034 3.89897461 301.0625 6.4375 C305.0871326 8.94296831 305.0871326 8.94296831 309.37890625 10.9140625 C313.89268233 12.78415155 317.85399917 15.62518661 321.94140625 18.27929688 C326.18663422 20.9921997 330.3341589 23.1025195 335 25 C335.886875 25.53625 336.77375 26.0725 337.6875 26.625 C339.84697204 27.9090104 341.54870286 28.54605609 344 29 C344 29.66 344 30.32 344 31 C344.66 31 345.32 31 346 31 C346 31.66 346 32.32 346 33 C346.70125 33.103125 347.4025 33.20625 348.125 33.3125 C351.43514611 34.10405668 353.99097909 35.40698893 357 37 C358.45674935 37.73232607 359.9151251 38.46142465 361.375 39.1875 C362.58333333 39.79166667 363.79166667 40.39583333 365 41 C365 41.66 365 42.32 365 43 C365.99 43.33 366.98 43.66 368 44 C367.10684909 48.96549375 363.97777151 51.21890261 360 54 C356.346701 56.12555578 352.61025414 58.07176687 348.859375 60.01855469 C345.55815507 61.76105785 342.31194625 63.60075432 339.0625 65.4375 C338.38936768 65.81737061 337.71623535 66.19724121 337.02270508 66.58862305 C328.2532258 71.54427862 319.49995469 76.52657099 310.8125 81.625 C306.14286399 84.35980675 301.41465069 86.96220063 296.65234375 89.53125 C294.03768339 90.97913262 291.48707509 92.50332147 288.9375 94.0625 C275.82701187 102 275.82701187 102 271 102 C271 102.66 271 103.32 271 104 C270.28714844 104.38671875 269.57429688 104.7734375 268.83984375 105.171875 C267.40318359 105.95304687 267.40318359 105.95304687 265.9375 106.75 C264.93589844 107.29398437 263.93429687 107.83796875 262.90234375 108.3984375 C260.57270464 109.68397187 258.2831337 111.01002975 256 112.375 C253 114 253 114 250 114 C250 114.66 250 115.32 250 116 C244.0169587 119.30747901 237.99708296 122.53171463 231.93676758 125.69482422 C225.25349715 129.18498381 218.64008278 132.69789418 212.21875 136.65625 C208.94969162 138.63610226 205.58765831 140.4321679 202.2265625 142.25 C190.6160018 148.54725326 179.12792624 155.03193398 167.76953125 161.7734375 C166.51319854 162.51592578 165.25669169 163.25811947 164 164 C163.37198486 164.37382812 162.74396973 164.74765625 162.09692383 165.1328125 C155.50187729 168.99896483 148.73705781 171.11089512 141 170 C132.65161449 167.63365628 125.28809319 163.62831236 117.8125 159.3125 C116.72042236 158.69109131 115.62834473 158.06968262 114.50317383 157.42944336 C112.32743892 156.19119021 110.15347432 154.94982036 107.98144531 153.70507812 C104.71540834 151.83724303 101.43583705 149.99505787 98.15136719 148.15991211 C91.94770646 144.69329662 85.79473703 141.14490985 79.6640625 137.55078125 C74.94166583 134.80182014 70.15972512 132.16586931 65.3515625 129.5703125 C60.84351816 127.13319049 56.3813036 124.65933325 52 122 C47.75963784 119.42786809 43.44561029 117.03540989 39.08203125 114.6796875 C35.55582518 112.75792754 32.058569 110.78837015 28.5625 108.8125 C22.31774106 105.28498971 16.04084971 101.81956768 9.75 98.375 C3.32996568 94.85785344 -3.03145099 91.27131625 -9.3359375 87.55078125 C-12.89680252 85.477961 -16.51012968 83.50969086 -20.13671875 81.5546875 C-22.46370615 80.29119366 -24.77809134 79.00969488 -27.08984375 77.71875 C-30.62384847 75.75162311 -34.17675222 73.82362139 -37.7421875 71.9140625 C-38.74636719 71.37523437 -39.75054687 70.83640625 -40.78515625 70.28125 C-42.8357322 69.18207907 -44.8878057 68.08569709 -46.94140625 66.9921875 C-53.0509976 63.70661981 -58.93545012 60.21625979 -64.72705078 56.39599609 C-67.02734963 54.86475458 -67.02734963 54.86475458 -70 54 C-70 53.34 -70 52.68 -70 52 C-70.598125 51.896875 -71.19625 51.79375 -71.8125 51.6875 C-74.46104026 50.85510163 -75.4530279 50.32045815 -77 48 C-77.1875 44.3125 -77.1875 44.3125 -77 41 C-76.154375 40.5875 -75.30875 40.175 -74.4375 39.75 C-68.39229206 36.6724396 -62.61230334 33.18443542 -56.8203125 29.66015625 C-53.72695113 27.83927179 -50.59436228 26.10049347 -47.45361328 24.36303711 C-43.24268115 22.02377004 -39.0583733 19.63811097 -34.875 17.25 C-33.96355225 16.72994385 -33.05210449 16.2098877 -32.11303711 15.67407227 C-25.95627635 12.14951455 -19.84405914 8.56011756 -13.79443359 4.85449219 C-3.76552415 -1.25517472 -3.76552415 -1.25517472 0 0 Z " fill="#283592" transform="translate(102,334)"/>
<path d="M0 0 C0.61101562 0.28858887 1.22203125 0.57717773 1.8515625 0.87451172 C15.38331868 7.40973487 25.20174898 15.08063827 33.89453125 27.26757812 C36.61211235 31.01850169 36.61211235 31.01850169 40.84375 32.41796875 C41.5553125 32.28003906 42.266875 32.14210937 43 32 C42.67 32.66 42.34 33.32 42 34 C40.02 34 38.04 34 36 34 C36 34.66 36 35.32 36 36 C35.319375 36.32871094 34.63875 36.65742188 33.9375 36.99609375 C18.87712103 44.38609354 4.48342113 52.95662209 -9.80859375 61.72265625 C-14.55278436 64.61653851 -19.34019234 67.20825888 -24.33984375 69.6328125 C-28.49110875 71.76635545 -32.45295218 74.21047532 -36.43359375 76.64453125 C-39 78 -39 78 -42 78 C-42 78.66 -42 79.32 -42 80 C-51.14811562 85.26183585 -60.34657655 90.40675647 -69.6328125 95.421875 C-80.57447467 101.35525449 -91.35732247 107.54585387 -102 114 C-103.66625296 115.00068919 -105.33281649 116.00086191 -107 117 C-117.43710636 96.92864162 -120.07935341 72.81340746 -113.33789062 50.98071289 C-105.95107736 29.83871245 -89.98875893 12.31800138 -70.375 1.875 C-68.26313893 0.88804985 -66.13729409 -0.06940784 -64 -1 C-62.92234375 -1.48984375 -61.8446875 -1.9796875 -60.734375 -2.484375 C-41.91165538 -9.73641849 -18.13637748 -8.72051134 0 0 Z " fill="#5B6ABE" transform="translate(280,175)"/>
<path d="M0 0 C0.66 0 1.32 0 2 0 C2.33 78.21 2.66 156.42 3 237 C2.34 237 1.68 237 1 237 C0.09739033 234.29217099 -0.12453358 232.75326703 -0.12304783 229.97639179 C-0.12503888 229.15530408 -0.12702993 228.33421637 -0.12908131 227.48824722 C-0.12616847 226.58650384 -0.12325563 225.68476046 -0.12025452 224.75569153 C-0.12110894 223.797577 -0.12196337 222.83946247 -0.12284368 221.85231417 C-0.12449652 218.62784238 -0.11898028 215.40342211 -0.11352539 212.17895508 C-0.11324345 209.87312318 -0.11340139 207.56729119 -0.1139679 205.26145935 C-0.1142556 198.98910194 -0.10836314 192.71676354 -0.10139394 186.44441056 C-0.095156 179.89406826 -0.09455625 173.34372555 -0.09336853 166.79338074 C-0.09077701 155.79494903 -0.08435799 144.796524 -0.07543945 133.7980957 C-0.06626232 122.4689945 -0.05918296 111.13989519 -0.05493164 99.81079102 C-0.05466892 99.11262222 -0.05440619 98.41445343 -0.05413551 97.695128 C-0.05283048 94.19266724 -0.05156677 90.69020647 -0.05032361 87.18774569 C-0.03995463 58.12515924 -0.02226521 29.06257972 0 0 Z " fill="#8E98C8" transform="translate(19,135)"/>
<path d="M0 0 C0.66 0 1.32 0 2 0 C2.309375 0.78375 2.61875 1.5675 2.9375 2.375 C3.92875038 4.92330128 3.92875038 4.92330128 5 7 C6.65 7 8.3 7 10 7 C10.28875 7.969375 10.5775 8.93875 10.875 9.9375 C11.64214682 13.10664203 11.64214682 13.10664203 14 14 C14 14.66 14 15.32 14 16 C14.69867188 15.97679687 15.39734375 15.95359375 16.1171875 15.9296875 C17.02726562 15.91164063 17.93734375 15.89359375 18.875 15.875 C20.23238281 15.84019531 20.23238281 15.84019531 21.6171875 15.8046875 C24 16 24 16 26 18 C25.34 19.32 24.68 20.64 24 22 C15.42738795 20.62838207 5.28180943 12.60226179 0 6 C-0.3125 2.6875 -0.3125 2.6875 0 0 Z " fill="#354091" transform="translate(187,305)"/>
<path d="M0 0 C1 2 1 2 0.43359375 3.76953125 C-2.01097745 8.78329885 -4.40370701 11.80257879 -9 15 C-9.66 15 -10.32 15 -11 15 C-11.33 16.32 -11.66 17.64 -12 19 C-12.99 18.67 -13.98 18.34 -15 18 C-10.44932654 11.46357812 -5.8866325 5.38994789 0 0 Z " fill="#6A74BC" transform="translate(190,191)"/>
<path d="M0 0 C-0.54839713 3.98501916 -2.47413884 5.93737246 -5.25 8.75 C-6.01828125 9.54921875 -6.7865625 10.3484375 -7.578125 11.171875 C-10.3461161 13.26126183 -11.61778207 13.40778514 -15 13 C-15 12.34 -15 11.68 -15 11 C-14.34 11 -13.68 11 -13 11 C-13 10.34 -13 9.68 -13 9 C-11.68 9 -10.36 9 -9 9 C-8.938125 8.2575 -8.87625 7.515 -8.8125 6.75 C-7.48557649 2.25887426 -4.67739925 0 0 0 Z " fill="#30398F" transform="translate(311,304)"/>
<path d="M0 0 C0 0.99 0 1.98 0 3 C0.69867188 2.97679687 1.39734375 2.95359375 2.1171875 2.9296875 C3.02726563 2.91164063 3.93734375 2.89359375 4.875 2.875 C6.23238281 2.84019531 6.23238281 2.84019531 7.6171875 2.8046875 C10 3 10 3 12 5 C12.33 5.66 12.66 6.32 13 7 C13.680625 6.79375 14.36125 6.5875 15.0625 6.375 C18.78833331 5.89936171 21.46992554 6.82330851 25 8 C25 8.33 25 8.66 25 9 C14.54826935 10.24315739 5.62714129 6.55854728 -4 3 C-4 2.34 -4 1.68 -4 1 C-2 0 -2 0 0 0 Z " fill="#394190" transform="translate(216,326)"/>
<path d="M0 0 C0.66 0.33 1.32 0.66 2 1 C1.01 3.31 0.02 5.62 -1 8 C-3.64 7.67 -6.28 7.34 -9 7 C-9.2475 7.639375 -9.495 8.27875 -9.75 8.9375 C-11 11 -11 11 -13 11.875 C-13.99 11.936875 -13.99 11.936875 -15 12 C-15.66 11.34 -16.32 10.68 -17 10 C-15.28490234 9.04287109 -15.28490234 9.04287109 -13.53515625 8.06640625 C-12.04422197 7.23185813 -10.55333921 6.39721796 -9.0625 5.5625 C-8.30775391 5.14162109 -7.55300781 4.72074219 -6.77539062 4.28710938 C-6.05673828 3.88427734 -5.33808594 3.48144531 -4.59765625 3.06640625 C-3.93258057 2.69459229 -3.26750488 2.32277832 -2.58227539 1.93969727 C-1.01422168 1.09652286 -1.01422168 1.09652286 0 0 Z " fill="#4C57A4" transform="translate(376,175)"/>
<path d="M0 0 C2.31 0 4.62 0 7 0 C7 0.66 7 1.32 7 2 C7.81984375 1.97679687 8.6396875 1.95359375 9.484375 1.9296875 C11.10085937 1.90261719 11.10085937 1.90261719 12.75 1.875 C14.35101563 1.84019531 14.35101563 1.84019531 15.984375 1.8046875 C18.92470106 1.99512313 20.52361878 2.47329896 23 4 C14.65674937 6.78108354 7.75895387 4.19486336 0 1 C0 0.67 0 0.34 0 0 Z " fill="#4B5194" transform="translate(232,499)"/>
<path d="M0 0 C2 1 2 1 4 4 C3.20335937 4.36351563 3.20335937 4.36351563 2.390625 4.734375 C-1.73992624 6.69412559 -4.97110547 8.46628972 -8 12 C-8 7.24588945 -7.13500397 6.39625431 -4 3 C-1.75 1.1875 -1.75 1.1875 0 0 Z " fill="#767FC1" transform="translate(32,116)"/>
<path d="M0 0 C0.66 0 1.32 0 2 0 C2.042721 1.66611905 2.04063832 3.33382885 2 5 C1.67 5.33 1.34 5.66 1 6 C0.91216458 8.21855264 0.89305391 10.43988496 0.90234375 12.66015625 C0.9037587 13.32462265 0.90517365 13.98908905 0.90663147 14.6736908 C0.91224482 16.80333899 0.92479946 18.93288339 0.9375 21.0625 C0.94251329 22.50325369 0.94707649 23.94400903 0.95117188 25.38476562 C0.96221855 28.92321102 0.97949208 32.46159539 1 36 C-1.15557559 32.49725641 -1.24531287 29.69520009 -1.23046875 25.625 C-1.22853516 24.39265625 -1.22660156 23.1603125 -1.22460938 21.890625 C-1.21236328 20.60671875 -1.20011719 19.3228125 -1.1875 18 C-1.18685547 16.71609375 -1.18621094 15.4321875 -1.18554688 14.109375 C-1.13663761 3.71887419 -1.13663761 3.71887419 0 0 Z " fill="#6A73B3" transform="translate(165,234)"/>
<path d="M0 0 C3.63 0.33 7.26 0.66 11 1 C11 2.65 11 4.3 11 6 C11.99 6 12.98 6 14 6 C14.33 5.34 14.66 4.68 15 4 C15.33 5.65 15.66 7.3 16 9 C10.0942118 7.44584521 5.02261107 4.40465533 0 1 C0 0.67 0 0.34 0 0 Z " fill="#606AA9" transform="translate(216,490)"/>
<path d="M0 0 C1 2 1 2 0.46875 3.734375 C-2.11557851 9.11144561 -5.2224333 12.45708537 -10 16 C-10.66 15.67 -11.32 15.34 -12 15 C-11.30132812 14.16855469 -10.60265625 13.33710938 -9.8828125 12.48046875 C-8.96346318 11.38287824 -8.04419668 10.28521835 -7.125 9.1875 C-6.66480469 8.64029297 -6.20460938 8.09308594 -5.73046875 7.52929688 C-3.68242038 5.08054339 -1.77281117 2.65921675 0 0 Z " fill="#3C4590" transform="translate(384,348)"/>
<path d="M0 0 C2.97 0 5.94 0 9 0 C9.33 0.66 9.66 1.32 10 2 C10.99 2.33 11.98 2.66 13 3 C13 3.99 13 4.98 13 6 C13.66 6 14.32 6 15 6 C15 6.66 15 7.32 15 8 C11.45756548 6.63408831 8.07372071 5.09068516 4.6875 3.375 C3.80449219 2.92898438 2.92148437 2.48296875 2.01171875 2.0234375 C1.34785156 1.68570312 0.68398438 1.34796875 0 1 C0 0.67 0 0.34 0 0 Z " fill="#4C58A6" transform="translate(371,323)"/>
<path d="M0 0 C0.33 0.66 0.66 1.32 1 2 C0.34 2 -0.32 2 -1 2 C-1 2.66 -1 3.32 -1 4 C-2.6796875 5.32421875 -2.6796875 5.32421875 -4.875 6.6875 C-5.59429687 7.14511719 -6.31359375 7.60273437 -7.0546875 8.07421875 C-7.69664063 8.37972656 -8.33859375 8.68523437 -9 9 C-9.66 8.67 -10.32 8.34 -11 8 C-11.33 8.66 -11.66 9.32 -12 10 C-12.99 9.34 -13.98 8.68 -15 8 C-10.05 5.36 -5.1 2.72 0 0 Z " fill="#7E89C2" transform="translate(74,93)"/>
<path d="M0 0 C-1.30016761 3.90050282 -2.76003913 4.31143857 -6.3125 6.25 C-7.76076172 7.06210937 -7.76076172 7.06210937 -9.23828125 7.890625 C-12.13699811 9.05503177 -13.16529977 9.15811981 -16 8 C-15.31292969 7.59007812 -14.62585938 7.18015625 -13.91796875 6.7578125 C-13.01691406 6.21898437 -12.11585938 5.68015625 -11.1875 5.125 C-10.29417969 4.59132813 -9.40085938 4.05765625 -8.48046875 3.5078125 C-2.70984456 0 -2.70984456 0 0 0 Z " fill="#9198CB" transform="translate(156,48)"/>
<path d="M0 0 C0.66 0 1.32 0 2 0 C2.309375 0.78375 2.61875 1.5675 2.9375 2.375 C3.92875038 4.92330128 3.92875038 4.92330128 5 7 C6.65 7 8.3 7 10 7 C10.33 7.99 10.66 8.98 11 10 C8.62125934 10.84729479 7.4574113 11.18686925 5.078125 10.21484375 C3.19801292 8.90117569 1.55238497 7.69351088 0 6 C-0.4375 2.6875 -0.4375 2.6875 0 0 Z " fill="#2D368C" transform="translate(187,305)"/>
<path d="M0 0 C0.99 0.66 1.98 1.32 3 2 C2 5 2 5 -0.1875 6.25 C-3.90870215 8.56541467 -6.28934135 11.60003296 -9 15 C-9.66 14.67 -10.32 14.34 -11 14 C-10.62488281 13.57589844 -10.24976563 13.15179688 -9.86328125 12.71484375 C-6.30335421 8.63482662 -3.08682003 4.4486524 0 0 Z " fill="#DEE4F7" transform="translate(319,295)"/>
<path d="M0 0 C0.66 0.33 1.32 0.66 2 1 C0.9375 3.375 0.9375 3.375 -1 6 C-4.375 7.25 -4.375 7.25 -8 8 C-8.969375 8.20625 -9.93875 8.4125 -10.9375 8.625 C-11.618125 8.74875 -12.29875 8.8725 -13 9 C-9.99230897 5.49102713 -6.82092197 3.74777628 -2.70703125 1.83203125 C-1.01192589 1.12052968 -1.01192589 1.12052968 0 0 Z " fill="#4B57A5" transform="translate(345,193)"/>
<path d="M0 0 C1.23556641 0.01740234 1.23556641 0.01740234 2.49609375 0.03515625 C3.32238281 0.04417969 4.14867187 0.05320312 5 0.0625 C5.63808594 0.07410156 6.27617187 0.08570313 6.93359375 0.09765625 C5.60767698 2.74948978 4.06796924 3.34902098 1.49609375 4.78515625 C0.69300781 5.24277344 -0.11007812 5.70039063 -0.9375 6.171875 C-1.64003906 6.47738281 -2.34257812 6.78289062 -3.06640625 7.09765625 C-3.72640625 6.76765625 -4.38640625 6.43765625 -5.06640625 6.09765625 C-2.77153066 0.13097971 -2.77153066 0.13097971 0 0 Z " fill="#5B63A2" transform="translate(449.06640625,389.90234375)"/>
<path d="M0 0 C0.99 0.33 1.98 0.66 3 1 C3.33 1.99 3.66 2.98 4 4 C1.03 4 -1.94 4 -5 4 C-5.33 3.01 -5.66 2.02 -6 1 C-6.66 0.67 -7.32 0.34 -8 0 C-5.11301479 -1.4434926 -3.10530768 -0.63373626 0 0 Z " fill="#2A3491" transform="translate(262,330)"/>
<path d="M0 0 C0.33 0.66 0.66 1.32 1 2 C-0.40689224 3.96604172 -1.82465249 5.92240796 -3.25 7.875 C-3.64574219 8.43058594 -4.04148437 8.98617187 -4.44921875 9.55859375 C-6.66678625 12.57593969 -8.43056157 14.70648791 -12 16 C-10.32770299 12.04030824 -7.63695006 8.9838799 -4.875 5.75 C-4.40707031 5.19570312 -3.93914062 4.64140625 -3.45703125 4.0703125 C-2.30824672 2.71052674 -1.15460347 1.35484835 0 0 Z " fill="#E8EFFC" transform="translate(126,136)"/>
<path d="M0 0 C0.66 0.33 1.32 0.66 2 1 C1.01 2.98 0.02 4.96 -1 7 C-3.97 7 -6.94 7 -10 7 C-8.67408323 4.34816647 -7.13437549 3.74863527 -4.5625 2.3125 C-3.75941406 1.85488281 -2.95632812 1.39726562 -2.12890625 0.92578125 C-1.42636719 0.62027344 -0.72382813 0.31476562 0 0 Z " fill="#7F8BC7" transform="translate(225,8)"/>
<path d="M0 0 C1.32 0.66 2.64 1.32 4 2 C4 2.66 4 3.32 4 4 C-0.36200187 6.44697666 -4.02693484 7.50269348 -9 8 C-9.33 7.34 -9.66 6.68 -10 6 C-8.72125 5.7525 -7.4425 5.505 -6.125 5.25 C-2.73252682 4.48009414 -2.73252682 4.48009414 -0.5 1.875 C-0.335 1.25625 -0.17 0.6375 0 0 Z " fill="#353C8E" transform="translate(282,323)"/>
<path d="M0 0 C0.6796875 1.703125 0.6796875 1.703125 1 4 C-0.1796875 6.359375 -0.1796875 6.359375 -1.875 8.75 C-2.42929688 9.54921875 -2.98359375 10.3484375 -3.5546875 11.171875 C-4.03164062 11.77515625 -4.50859375 12.3784375 -5 13 C-5.33 13 -5.66 13 -6 13 C-6 11.35 -6 9.7 -6 8 C-5.34 8 -4.68 8 -4 8 C-3.896875 7.236875 -3.79375 6.47375 -3.6875 5.6875 C-2.95635961 2.82940576 -2.23048087 1.84257115 0 0 Z " fill="#646FB2" transform="translate(109,153)"/>
<path d="M0 0 C7.40640436 -0.3332882 13.2598894 -0.24523844 20 3 C20.66 3.66 21.32 4.32 22 5 C20.68 5.33 19.36 5.66 18 6 C18 5.01 18 4.02 18 3 C15.69 3 13.38 3 11 3 C11 2.34 11 1.68 11 1 C7.37 1 3.74 1 0 1 C0 0.67 0 0.34 0 0 Z " fill="#9DA3CF" transform="translate(241,1)"/>
<path d="M0 0 C0.33 0.99 0.66 1.98 1 3 C0.34 3 -0.32 3 -1 3 C-1 3.66 -1 4.32 -1 5 C-3 7 -3 7 -5 8 C-6.67654729 7.72057545 -8.34608154 7.39171753 -10 7 C-6.80331012 4.3513141 -3.60513403 2.06007659 0 0 Z " fill="#374192" transform="translate(342,390)"/>
<path d="M0 0 C0.66 0.33 1.32 0.66 2 1 C0.68 3.31 -0.64 5.62 -2 8 C-4 7 -4 7 -5 6 C-6.32594105 5.63837971 -7.65938457 5.30271961 -9 5 C-7.54735962 4.1361871 -6.0876837 3.28419546 -4.625 2.4375 C-3.40683594 1.72400391 -3.40683594 1.72400391 -2.1640625 0.99609375 C-1.44992188 0.66738281 -0.73578125 0.33867188 0 0 Z " fill="#8B91CD" transform="translate(57,102)"/>
<path d="M0 0 C4.23039958 1.74192924 8.1273638 3.53559514 12 6 C11.67 6.66 11.34 7.32 11 8 C9.35 7.67 7.7 7.34 6 7 C6 6.34 6 5.68 6 5 C4.68 4.67 3.36 4.34 2 4 C2 3.34 2 2.68 2 2 C1.34 2 0.68 2 0 2 C0 1.34 0 0.68 0 0 Z " fill="#8A91C7" transform="translate(274,12)"/>
<path d="M0 0 C0.66 0 1.32 0 2 0 C2 2.31 2 4.62 2 7 C2.99 7.33 3.98 7.66 5 8 C5 8.66 5 9.32 5 10 C4.01 10 3.02 10 2 10 C-0.1875 7 -0.1875 7 -2 4 C-1.34 2.68 -0.68 1.36 0 0 Z " fill="#2F3989" transform="translate(181,297)"/>
<path d="M0 0 C2.475 0.99 2.475 0.99 5 2 C4.34 3.65 3.68 5.3 3 7 C1.68 7 0.36 7 -1 7 C-1 4.37886292 -0.68707555 2.49064888 0 0 Z " fill="#2B358E" transform="translate(314,292)"/>
<path d="M0 0 C0.66 0.33 1.32 0.66 2 1 C1.01 2.485 1.01 2.485 0 4 C-0.99 4 -1.98 4 -3 4 C-3 4.66 -3 5.32 -3 6 C-3.99 6 -4.98 6 -6 6 C-6.33 6.66 -6.66 7.32 -7 8 C-8.32 7.67 -9.64 7.34 -11 7 C-9.21475351 5.80286983 -7.4215972 4.61752721 -5.625 3.4375 C-4.62726563 2.77621094 -3.62953125 2.11492188 -2.6015625 1.43359375 C-1.74304688 0.96050781 -0.88453125 0.48742188 0 0 Z " fill="#929ACB" transform="translate(130,61)"/>
<path d="M0 0 C2.31 0.33 4.62 0.66 7 1 C7.66 2.65 8.32 4.3 9 6 C5.9168649 4.80100302 2.93720508 3.52299523 0 2 C0 1.34 0 0.68 0 0 Z " fill="#5C66A2" transform="translate(59,401)"/>
<path d="M0 0 C4.8274799 1.41292095 8.7162359 3.42974154 13 6 C13 6.33 13 6.66 13 7 C7.43820225 7.37078652 7.43820225 7.37078652 5.375 5.625 C4.92125 5.08875 4.4675 4.5525 4 4 C1.90010348 2.82425289 1.90010348 2.82425289 0 2 C0 1.34 0 0.68 0 0 Z " fill="#8B92C6" transform="translate(345,52)"/>
<path d="M0 0 C0 0.99 0 1.98 0 3 C-3.66486096 5.91033076 -6.39374606 6.32136655 -11 6 C-9.73083275 3.46166551 -8.58375191 3.10599099 -6.0625 1.875 C-5.35222656 1.52179687 -4.64195312 1.16859375 -3.91015625 0.8046875 C-2 0 -2 0 0 0 Z " fill="#8893C5" transform="translate(215,15)"/>
<path d="M0 0 C-3.19990508 2.74277578 -6.00499382 4.6302836 -10 6 C-9.75 4.125 -9.75 4.125 -9 2 C-6.04454879 -0.11103658 -3.56144099 -0.19785783 0 0 Z " fill="#646AAB" transform="translate(273,493)"/>
<path d="M0 0 C0.78375 0.04125 1.5675 0.0825 2.375 0.125 C2.375 0.785 2.375 1.445 2.375 2.125 C0.91962432 2.96348804 -0.53940373 3.79563934 -2 4.625 C-3.21816406 5.32109375 -3.21816406 5.32109375 -4.4609375 6.03125 C-6.625 7.125 -6.625 7.125 -8.625 7.125 C-8.295 6.135 -7.965 5.145 -7.625 4.125 C-6.635 4.125 -5.645 4.125 -4.625 4.125 C-4.625 3.465 -4.625 2.805 -4.625 2.125 C-2.625 0.125 -2.625 0.125 0 0 Z " fill="#54599D" transform="translate(286.625,482.875)"/>
<path d="M0 0 C0.33 0.66 0.66 1.32 1 2 C1.66 2 2.32 2 3 2 C3 1.34 3 0.68 3 0 C4.65 0 6.3 0 8 0 C4.58983503 2.86453858 1.09305456 4.34703566 -3 6 C-3.33 5.01 -3.66 4.02 -4 3 C-3.01 2.34 -2.02 1.68 -1 1 C-0.67 0.67 -0.34 0.34 0 0 Z " fill="#555FA5" transform="translate(310,468)"/>
<path d="M0 0 C0.99 0.33 1.98 0.66 3 1 C2 4 2 4 0.15234375 5.16796875 C-0.57855469 5.50441406 -1.30945313 5.84085937 -2.0625 6.1875 C-2.79597656 6.53167969 -3.52945312 6.87585938 -4.28515625 7.23046875 C-5.13400391 7.61138672 -5.13400391 7.61138672 -6 8 C-6 7.01 -6 6.02 -6 5 C-5.01 5 -4.02 5 -3 5 C-2.5359375 4.0409375 -2.5359375 4.0409375 -2.0625 3.0625 C-1 1 -1 1 0 0 Z " fill="#4C529C" transform="translate(367,436)"/>
<path d="M0 0 C0.66 0 1.32 0 2 0 C2.8125 2.125 2.8125 2.125 3 5 C1.55576519 7.30107561 -0.10872135 9.01646386 -2 11 C-3 8 -3 8 -2 5 C-1.34 5 -0.68 5 0 5 C-0.33 4.01 -0.66 3.02 -1 2 C-0.67 1.34 -0.34 0.68 0 0 Z " fill="#6A73BA" transform="translate(121,135)"/>
<path d="M0 0 C5.75 -0.125 5.75 -0.125 8 1 C8 1.99 8 2.98 8 4 C8.99 4 9.98 4 11 4 C11 4.66 11 5.32 11 6 C6.95743617 4.77782954 3.50711041 3.37245704 0 1 C0 0.67 0 0.34 0 0 Z " fill="#6E73B2" transform="translate(175,467)"/>
<path d="M0 0 C0.66 0.33 1.32 0.66 2 1 C1.67 2.32 1.34 3.64 1 5 C-0.32 5.33 -1.64 5.66 -3 6 C-3 5.34 -3 4.68 -3 4 C-3.66 3.67 -4.32 3.34 -5 3 C-2.625 1.4375 -2.625 1.4375 0 0 Z " fill="#6D78BB" transform="translate(213,175)"/>
<path d="M0 0 C7.42857143 -0.28571429 7.42857143 -0.28571429 11 2 C11 2.66 11 3.32 11 4 C9.35232753 3.71890887 7.70686855 3.42481474 6.0625 3.125 C4.68771484 2.88136719 4.68771484 2.88136719 3.28515625 2.6328125 C2.53105469 2.42398438 1.77695312 2.21515625 1 2 C0.67 1.34 0.34 0.68 0 0 Z " fill="#6872B5" transform="translate(289,89)"/>
<path d="M0 0 C5.49152542 0.61016949 5.49152542 0.61016949 7.875 2.4375 C9 4 9 4 9 6 C9.66 6 10.32 6 11 6 C10.67 6.66 10.34 7.32 10 8 C8.33055479 6.85821872 6.6645052 5.71147095 5 4.5625 C4.071875 3.92441406 3.14375 3.28632813 2.1875 2.62890625 C1.465625 2.09136719 0.74375 1.55382812 0 1 C0 0.67 0 0.34 0 0 Z " fill="#41488F" transform="translate(192,315)"/>
<path d="M0 0 C1.60080151 4.00200378 0.29279692 7.04556236 -1 11 C-1.99 11 -2.98 11 -4 11 C-2.95902388 7.13351728 -1.96301592 3.50538557 0 0 Z " fill="#717CBB" transform="translate(172,215)"/>
<path d="M0 0 C1.65 0 3.3 0 5 0 C2.22719294 3.08089673 -0.06326356 4.68775452 -4 6 C-3.67 4.68 -3.34 3.36 -3 2 C-2.01 2 -1.02 2 0 2 C0 1.34 0 0.68 0 0 Z " fill="#6973B3" transform="translate(149,113)"/>
<path d="M0 0 C0 0.66 0 1.32 0 2 C-0.99 2 -1.98 2 -3 2 C-3 2.66 -3 3.32 -3 4 C-6.4352048 6.29013653 -7.985331 6.17842973 -12 6 C-3 0 -3 0 0 0 Z " fill="#474F93" transform="translate(332,397)"/>
<path d="M0 0 C0.33 0.99 0.66 1.98 1 3 C-0.1875 4.5625 -0.1875 4.5625 -2 6 C-4.6875 5.6875 -4.6875 5.6875 -7 5 C-2.25 1.125 -2.25 1.125 0 0 Z " fill="#535DAB" transform="translate(366,181)"/>
<path d="M0 0 C0.66 0.33 1.32 0.66 2 1 C0.90653119 2.34212062 -0.2001575 3.67347975 -1.3125 5 C-2.23482422 6.11375 -2.23482422 6.11375 -3.17578125 7.25 C-5 9 -5 9 -8 9 C-6.4169423 4.7257442 -3.49431596 2.73468206 0 0 Z " fill="#E4ECFA" transform="translate(138,125)"/>
<path d="M0 0 C0.66 0.33 1.32 0.66 2 1 C1.01 2.485 1.01 2.485 0 4 C-0.33 3.67 -0.66 3.34 -1 3 C-1.33 3.66 -1.66 4.32 -2 5 C-3.64363134 5.72159424 -5.31050386 6.39351421 -7 7 C-7.66 6.34 -8.32 5.68 -9 5 C-7.54735962 4.1361871 -6.0876837 3.28419546 -4.625 2.4375 C-3.40683594 1.72400391 -3.40683594 1.72400391 -2.1640625 0.99609375 C-1.44992188 0.66738281 -0.73578125 0.33867188 0 0 Z " fill="#8893C9" transform="translate(84,87)"/>
<path d="M0 0 C1.65 0 3.3 0 5 0 C5.66 1.98 6.32 3.96 7 6 C4.36 4.68 1.72 3.36 -1 2 C-0.67 1.34 -0.34 0.68 0 0 Z " fill="#525AA0" transform="translate(167,461)"/>
<path d="M0 0 C-2.68841859 2.25245881 -4.64641875 3.88213958 -8 5 C-8 3.68 -8 2.36 -8 1 C-5.29120665 -0.35439668 -2.99066732 -0.06501451 0 0 Z " fill="#626AAB" transform="translate(394,425)"/>
<path d="M0 0 C1.65 0 3.3 0 5 0 C5.33 0.66 5.66 1.32 6 2 C1.25 5 1.25 5 -1 5 C-0.67 3.35 -0.34 1.7 0 0 Z " fill="#626AAB" transform="translate(438,396)"/>
<path d="M0 0 C-1.20381448 2.49361571 -2.45428722 4.68143083 -4 7 C-5.32 6.67 -6.64 6.34 -8 6 C-7.0479279 4.99403703 -6.08812654 3.99538437 -5.125 3 C-4.59132813 2.443125 -4.05765625 1.88625 -3.5078125 1.3125 C-2 0 -2 0 0 0 Z " fill="#444B96" transform="translate(363,374)"/>
<path d="M0 0 C0 0.66 0 1.32 0 2 C-1.42578125 3.32421875 -1.42578125 3.32421875 -3.3125 4.6875 C-3.92738281 5.14511719 -4.54226563 5.60273438 -5.17578125 6.07421875 C-5.77777344 6.37972656 -6.37976563 6.68523437 -7 7 C-7.99 6.67 -8.98 6.34 -10 6 C-7 4 -7 4 -5 4 C-4.67 3.01 -4.34 2.02 -4 1 C-2 0 -2 0 0 0 Z " fill="#4450AA" transform="translate(397,164)"/>
<path d="M0 0 C3.99500618 1.3697164 6.80009492 3.25722422 10 6 C6.6875 5.8125 6.6875 5.8125 3 5 C1.0625 2.4375 1.0625 2.4375 0 0 Z " fill="#8F96CB" transform="translate(287,19)"/>
<path d="M0 0 C1.65 0.33 3.3 0.66 5 1 C2.6875 3.0625 2.6875 3.0625 0 5 C-0.99 4.67 -1.98 4.34 -3 4 C-3 3.34 -3 2.68 -3 2 C-2.01 2 -1.02 2 0 2 C0 1.34 0 0.68 0 0 Z " fill="#5B63A9" transform="translate(339,452)"/>
<path d="M0 0 C2.4375 0.6875 2.4375 0.6875 5 2 C5.8125 4.625 5.8125 4.625 6 7 C5.01 7.495 5.01 7.495 4 8 C0 2.25 0 2.25 0 0 Z " fill="#6C75B4" transform="translate(384,155)"/>
<path d="M0 0 C0.103125 0.61875 0.20625 1.2375 0.3125 1.875 C0.87525373 4.36526484 0.87525373 4.36526484 4 6 C3.67 6.66 3.34 7.32 3 8 C-0.16115776 6.63016497 -0.9927092 6.0109362 -3 3 C-2.34 3 -1.68 3 -1 3 C-0.67 2.01 -0.34 1.02 0 0 Z " fill="#646FB0" transform="translate(28,378)"/>
<path d="M0 0 C0.99 0.33 1.98 0.66 3 1 C4.1875 4.0625 4.1875 4.0625 5 7 C3.68 6.34 2.36 5.68 1 5 C1 4.01 1 3.02 1 2 C0.01 1.67 -0.98 1.34 -2 1 C-1.34 0.67 -0.68 0.34 0 0 Z " fill="#434C93" transform="translate(99,333)"/>
<path d="M0 0 C0.33 0.66 0.66 1.32 1 2 C0.22265625 3.7265625 0.22265625 3.7265625 -0.9375 5.625 C-1.618125 6.73875 -2.29875 7.8525 -3 9 C-3.66 8.34 -4.32 7.68 -5 7 C-1.125 1.125 -1.125 1.125 0 0 Z " fill="#636EB7" transform="translate(190,191)"/>
<path d="M0 0 C2.875 0.25 2.875 0.25 6 1 C7.375 3.0625 7.375 3.0625 8 5 C4.62496331 3.8141763 2.35277269 2.72426311 0 0 Z " fill="#6F73AE" transform="translate(42,392)"/>
<path d="M0 0 C1 2 1 2 0.375 4 C-1.39265071 6.57112831 -3.07589059 7.07659703 -6 8 C-4.02 5.36 -2.04 2.72 0 0 Z " fill="#4C539D" transform="translate(378,356)"/>
<path d="M0 0 C2.91227269 3.28804981 4.49701212 5.59885603 5 10 C2.03134491 7.45543849 0.6380249 4.51005335 -1 1 C-0.67 0.67 -0.34 0.34 0 0 Z " fill="#6A72B2" transform="translate(93,320)"/>
<path d="M0 0 C0.99 0.33 1.98 0.66 3 1 C2.01 2.485 2.01 2.485 1 4 C-2.125 4.1875 -2.125 4.1875 -5 4 C-2.6875 1.9375 -2.6875 1.9375 0 0 Z " fill="#8086C2" transform="translate(195,25)"/>
<path d="M0 0 C2.31 0.33 4.62 0.66 7 1 C3.09971775 3.60018816 -0.47434569 3.15085514 -5 3 C-5 2.67 -5 2.34 -5 2 C-3.35 1.67 -1.7 1.34 0 1 C0 0.67 0 0.34 0 0 Z " fill="#A1A5C7" transform="translate(248,501)"/>
<path d="M0 0 C0.66 0.33 1.32 0.66 2 1 C1.67 2.65 1.34 4.3 1 6 C-0.32 6.33 -1.64 6.66 -3 7 C-1.125 1.125 -1.125 1.125 0 0 Z " fill="#46509B" transform="translate(447,390)"/>
<path d="M0 0 C0.33 0.99 0.66 1.98 1 3 C-0.32 3.33 -1.64 3.66 -3 4 C-3 4.66 -3 5.32 -3 6 C-4.32 5.67 -5.64 5.34 -7 5 C-4.69 3.35 -2.38 1.7 0 0 Z " fill="#727BB9" transform="translate(201,182)"/>
<path d="M0 0 C1.32 0 2.64 0 4 0 C2.86695008 3.39914975 1.87481525 4.05254451 -1 6 C-1.042721 4.33388095 -1.04063832 2.66617115 -1 1 C-0.67 0.67 -0.34 0.34 0 0 Z " fill="#6D77B7" transform="translate(125,133)"/>
<path d="M0 0 C2.475 0.99 2.475 0.99 5 2 C5 2.99 5 3.98 5 5 C4.01 5 3.02 5 2 5 C2 4.34 2 3.68 2 3 C1.34 3 0.68 3 0 3 C0 2.01 0 1.02 0 0 Z " fill="#878DC5" transform="translate(448,109)"/>
</svg>
